<mxfile host="Electron" modified="2024-01-01T18:09:37.270Z" agent="Mozilla/5.0 (Windows NT 10.0; Win64; x64) AppleWebKit/537.36 (KHTML, like Gecko) draw.io/22.1.16 Chrome/120.0.6099.109 Electron/28.1.0 Safari/537.36" etag="-6XTnx7J5TWzOB-cTkaD" version="22.1.16" type="device">
  <diagram name="第 1 页" id="88aykzo44nKxTDaEI3kb">
    <mxGraphModel dx="1560" dy="559" grid="1" gridSize="10" guides="1" tooltips="1" connect="1" arrows="1" fold="1" page="0" pageScale="1" pageWidth="827" pageHeight="1169" math="0" shadow="0">
      <root>
        <mxCell id="0" />
        <mxCell id="1" parent="0" />
        <mxCell id="k_sBdBxjnJnmiXeVj0B4-1" value="用户" style="rounded=0;whiteSpace=wrap;html=1;" vertex="1" parent="1">
          <mxGeometry x="-50" y="247" width="67" height="40" as="geometry" />
        </mxCell>
        <mxCell id="k_sBdBxjnJnmiXeVj0B4-2" value="用户名" style="ellipse;whiteSpace=wrap;html=1;" vertex="1" parent="1">
          <mxGeometry x="-180" y="172" width="60" height="40" as="geometry" />
        </mxCell>
        <mxCell id="k_sBdBxjnJnmiXeVj0B4-3" value="ID" style="ellipse;whiteSpace=wrap;html=1;" vertex="1" parent="1">
          <mxGeometry x="-130" y="132" width="60" height="40" as="geometry" />
        </mxCell>
        <mxCell id="k_sBdBxjnJnmiXeVj0B4-4" value="电话" style="ellipse;whiteSpace=wrap;html=1;" vertex="1" parent="1">
          <mxGeometry x="-200" y="222" width="59" height="40" as="geometry" />
        </mxCell>
        <mxCell id="k_sBdBxjnJnmiXeVj0B4-5" value="密码" style="ellipse;whiteSpace=wrap;html=1;" vertex="1" parent="1">
          <mxGeometry x="-130" y="352" width="60" height="40" as="geometry" />
        </mxCell>
        <mxCell id="k_sBdBxjnJnmiXeVj0B4-6" value="身份" style="ellipse;whiteSpace=wrap;html=1;" vertex="1" parent="1">
          <mxGeometry x="-180" y="320" width="60" height="40" as="geometry" />
        </mxCell>
        <mxCell id="k_sBdBxjnJnmiXeVj0B4-7" value="性别" style="ellipse;whiteSpace=wrap;html=1;" vertex="1" parent="1">
          <mxGeometry x="-200" y="272" width="57" height="40" as="geometry" />
        </mxCell>
        <mxCell id="k_sBdBxjnJnmiXeVj0B4-14" value="公示信息" style="rounded=0;whiteSpace=wrap;html=1;" vertex="1" parent="1">
          <mxGeometry x="270" y="247" width="67" height="40" as="geometry" />
        </mxCell>
        <mxCell id="k_sBdBxjnJnmiXeVj0B4-15" value="ID" style="ellipse;whiteSpace=wrap;html=1;" vertex="1" parent="1">
          <mxGeometry x="390" y="192" width="60" height="40" as="geometry" />
        </mxCell>
        <mxCell id="k_sBdBxjnJnmiXeVj0B4-16" value="公示内容" style="ellipse;whiteSpace=wrap;html=1;" vertex="1" parent="1">
          <mxGeometry x="390" y="342" width="60" height="40" as="geometry" />
        </mxCell>
        <mxCell id="k_sBdBxjnJnmiXeVj0B4-17" value="负责人" style="ellipse;whiteSpace=wrap;html=1;" vertex="1" parent="1">
          <mxGeometry x="420" y="242" width="60" height="40" as="geometry" />
        </mxCell>
        <mxCell id="k_sBdBxjnJnmiXeVj0B4-18" value="公示时间" style="ellipse;whiteSpace=wrap;html=1;" vertex="1" parent="1">
          <mxGeometry x="420" y="292" width="60" height="40" as="geometry" />
        </mxCell>
        <mxCell id="k_sBdBxjnJnmiXeVj0B4-19" value="检索查看" style="rhombus;whiteSpace=wrap;html=1;" vertex="1" parent="1">
          <mxGeometry x="90" y="242" width="90" height="50" as="geometry" />
        </mxCell>
        <mxCell id="k_sBdBxjnJnmiXeVj0B4-28" value="" style="endArrow=none;html=1;rounded=0;entryX=0.25;entryY=0;entryDx=0;entryDy=0;exitX=0.68;exitY=0.983;exitDx=0;exitDy=0;exitPerimeter=0;" edge="1" parent="1" source="k_sBdBxjnJnmiXeVj0B4-3" target="k_sBdBxjnJnmiXeVj0B4-1">
          <mxGeometry width="50" height="50" relative="1" as="geometry">
            <mxPoint x="-70" y="150" as="sourcePoint" />
            <mxPoint x="-20" y="100" as="targetPoint" />
          </mxGeometry>
        </mxCell>
        <mxCell id="k_sBdBxjnJnmiXeVj0B4-29" value="" style="endArrow=none;html=1;rounded=0;entryX=0;entryY=0.25;entryDx=0;entryDy=0;" edge="1" parent="1" target="k_sBdBxjnJnmiXeVj0B4-1">
          <mxGeometry width="50" height="50" relative="1" as="geometry">
            <mxPoint x="-120" y="190" as="sourcePoint" />
            <mxPoint x="-70" y="140" as="targetPoint" />
          </mxGeometry>
        </mxCell>
        <mxCell id="k_sBdBxjnJnmiXeVj0B4-30" value="" style="endArrow=none;html=1;rounded=0;entryX=0;entryY=0.5;entryDx=0;entryDy=0;" edge="1" parent="1" target="k_sBdBxjnJnmiXeVj0B4-1">
          <mxGeometry width="50" height="50" relative="1" as="geometry">
            <mxPoint x="-140" y="240" as="sourcePoint" />
            <mxPoint x="-90" y="190" as="targetPoint" />
          </mxGeometry>
        </mxCell>
        <mxCell id="k_sBdBxjnJnmiXeVj0B4-31" value="" style="endArrow=none;html=1;rounded=0;exitX=1;exitY=0.5;exitDx=0;exitDy=0;" edge="1" parent="1" source="k_sBdBxjnJnmiXeVj0B4-7">
          <mxGeometry width="50" height="50" relative="1" as="geometry">
            <mxPoint x="-100" y="330" as="sourcePoint" />
            <mxPoint x="-50" y="280" as="targetPoint" />
          </mxGeometry>
        </mxCell>
        <mxCell id="k_sBdBxjnJnmiXeVj0B4-32" value="" style="endArrow=none;html=1;rounded=0;entryX=0.149;entryY=1.021;entryDx=0;entryDy=0;entryPerimeter=0;" edge="1" parent="1" target="k_sBdBxjnJnmiXeVj0B4-1">
          <mxGeometry width="50" height="50" relative="1" as="geometry">
            <mxPoint x="-120" y="340" as="sourcePoint" />
            <mxPoint x="-70" y="290" as="targetPoint" />
          </mxGeometry>
        </mxCell>
        <mxCell id="k_sBdBxjnJnmiXeVj0B4-33" value="" style="endArrow=none;html=1;rounded=0;entryX=0.25;entryY=1;entryDx=0;entryDy=0;" edge="1" parent="1" target="k_sBdBxjnJnmiXeVj0B4-1">
          <mxGeometry width="50" height="50" relative="1" as="geometry">
            <mxPoint x="-70" y="370" as="sourcePoint" />
            <mxPoint x="-20" y="320" as="targetPoint" />
          </mxGeometry>
        </mxCell>
        <mxCell id="k_sBdBxjnJnmiXeVj0B4-34" value="" style="endArrow=none;html=1;rounded=0;exitX=1;exitY=0.25;exitDx=0;exitDy=0;" edge="1" parent="1" source="k_sBdBxjnJnmiXeVj0B4-14">
          <mxGeometry width="50" height="50" relative="1" as="geometry">
            <mxPoint x="340" y="260" as="sourcePoint" />
            <mxPoint x="390" y="210" as="targetPoint" />
          </mxGeometry>
        </mxCell>
        <mxCell id="k_sBdBxjnJnmiXeVj0B4-35" value="" style="endArrow=none;html=1;rounded=0;" edge="1" parent="1" source="k_sBdBxjnJnmiXeVj0B4-14">
          <mxGeometry width="50" height="50" relative="1" as="geometry">
            <mxPoint x="340" y="270" as="sourcePoint" />
            <mxPoint x="420" y="260" as="targetPoint" />
          </mxGeometry>
        </mxCell>
        <mxCell id="k_sBdBxjnJnmiXeVj0B4-36" value="" style="endArrow=none;html=1;rounded=0;" edge="1" parent="1" source="k_sBdBxjnJnmiXeVj0B4-14">
          <mxGeometry width="50" height="50" relative="1" as="geometry">
            <mxPoint x="340" y="280" as="sourcePoint" />
            <mxPoint x="420" y="310" as="targetPoint" />
          </mxGeometry>
        </mxCell>
        <mxCell id="k_sBdBxjnJnmiXeVj0B4-37" value="" style="endArrow=none;html=1;rounded=0;exitX=0.871;exitY=1.021;exitDx=0;exitDy=0;exitPerimeter=0;" edge="1" parent="1" source="k_sBdBxjnJnmiXeVj0B4-14">
          <mxGeometry width="50" height="50" relative="1" as="geometry">
            <mxPoint x="340" y="410" as="sourcePoint" />
            <mxPoint x="390" y="360" as="targetPoint" />
          </mxGeometry>
        </mxCell>
        <mxCell id="k_sBdBxjnJnmiXeVj0B4-38" value="" style="endArrow=none;html=1;rounded=0;entryX=0;entryY=0.5;entryDx=0;entryDy=0;" edge="1" parent="1" target="k_sBdBxjnJnmiXeVj0B4-19">
          <mxGeometry width="50" height="50" relative="1" as="geometry">
            <mxPoint x="17" y="267" as="sourcePoint" />
            <mxPoint x="67" y="217" as="targetPoint" />
          </mxGeometry>
        </mxCell>
        <mxCell id="k_sBdBxjnJnmiXeVj0B4-40" value="n" style="edgeLabel;html=1;align=center;verticalAlign=middle;resizable=0;points=[];" vertex="1" connectable="0" parent="k_sBdBxjnJnmiXeVj0B4-38">
          <mxGeometry x="-0.2407" y="1" relative="1" as="geometry">
            <mxPoint as="offset" />
          </mxGeometry>
        </mxCell>
        <mxCell id="k_sBdBxjnJnmiXeVj0B4-41" value="" style="endArrow=classic;html=1;rounded=0;exitX=1;exitY=0.5;exitDx=0;exitDy=0;entryX=0;entryY=0.5;entryDx=0;entryDy=0;entryPerimeter=0;" edge="1" parent="1" source="k_sBdBxjnJnmiXeVj0B4-19" target="k_sBdBxjnJnmiXeVj0B4-14">
          <mxGeometry width="50" height="50" relative="1" as="geometry">
            <mxPoint x="220" y="320" as="sourcePoint" />
            <mxPoint x="270" y="270" as="targetPoint" />
          </mxGeometry>
        </mxCell>
        <mxCell id="k_sBdBxjnJnmiXeVj0B4-42" value="m" style="edgeLabel;html=1;align=center;verticalAlign=middle;resizable=0;points=[];" vertex="1" connectable="0" parent="k_sBdBxjnJnmiXeVj0B4-41">
          <mxGeometry x="0.019" y="1" relative="1" as="geometry">
            <mxPoint as="offset" />
          </mxGeometry>
        </mxCell>
        <mxCell id="k_sBdBxjnJnmiXeVj0B4-44" value="用户" style="rounded=0;whiteSpace=wrap;html=1;" vertex="1" parent="1">
          <mxGeometry x="-56.5" y="570" width="67" height="40" as="geometry" />
        </mxCell>
        <mxCell id="k_sBdBxjnJnmiXeVj0B4-45" value="用户名" style="ellipse;whiteSpace=wrap;html=1;" vertex="1" parent="1">
          <mxGeometry x="-186.5" y="495" width="60" height="40" as="geometry" />
        </mxCell>
        <mxCell id="k_sBdBxjnJnmiXeVj0B4-46" value="ID" style="ellipse;whiteSpace=wrap;html=1;" vertex="1" parent="1">
          <mxGeometry x="-136.5" y="455" width="60" height="40" as="geometry" />
        </mxCell>
        <mxCell id="k_sBdBxjnJnmiXeVj0B4-47" value="电话" style="ellipse;whiteSpace=wrap;html=1;" vertex="1" parent="1">
          <mxGeometry x="-206.5" y="545" width="59" height="40" as="geometry" />
        </mxCell>
        <mxCell id="k_sBdBxjnJnmiXeVj0B4-48" value="密码" style="ellipse;whiteSpace=wrap;html=1;" vertex="1" parent="1">
          <mxGeometry x="-136.5" y="675" width="60" height="40" as="geometry" />
        </mxCell>
        <mxCell id="k_sBdBxjnJnmiXeVj0B4-49" value="身份" style="ellipse;whiteSpace=wrap;html=1;" vertex="1" parent="1">
          <mxGeometry x="-186.5" y="643" width="60" height="40" as="geometry" />
        </mxCell>
        <mxCell id="k_sBdBxjnJnmiXeVj0B4-50" value="性别" style="ellipse;whiteSpace=wrap;html=1;" vertex="1" parent="1">
          <mxGeometry x="-206.5" y="595" width="57" height="40" as="geometry" />
        </mxCell>
        <mxCell id="k_sBdBxjnJnmiXeVj0B4-52" value="" style="endArrow=none;html=1;rounded=0;entryX=0.25;entryY=0;entryDx=0;entryDy=0;exitX=0.68;exitY=0.983;exitDx=0;exitDy=0;exitPerimeter=0;" edge="1" parent="1" source="k_sBdBxjnJnmiXeVj0B4-46" target="k_sBdBxjnJnmiXeVj0B4-44">
          <mxGeometry width="50" height="50" relative="1" as="geometry">
            <mxPoint x="-76.5" y="473" as="sourcePoint" />
            <mxPoint x="-26.5" y="423" as="targetPoint" />
          </mxGeometry>
        </mxCell>
        <mxCell id="k_sBdBxjnJnmiXeVj0B4-53" value="" style="endArrow=none;html=1;rounded=0;entryX=0;entryY=0.25;entryDx=0;entryDy=0;" edge="1" parent="1" target="k_sBdBxjnJnmiXeVj0B4-44">
          <mxGeometry width="50" height="50" relative="1" as="geometry">
            <mxPoint x="-126.5" y="513" as="sourcePoint" />
            <mxPoint x="-76.5" y="463" as="targetPoint" />
          </mxGeometry>
        </mxCell>
        <mxCell id="k_sBdBxjnJnmiXeVj0B4-54" value="" style="endArrow=none;html=1;rounded=0;entryX=0;entryY=0.5;entryDx=0;entryDy=0;" edge="1" parent="1" target="k_sBdBxjnJnmiXeVj0B4-44">
          <mxGeometry width="50" height="50" relative="1" as="geometry">
            <mxPoint x="-146.5" y="563" as="sourcePoint" />
            <mxPoint x="-96.5" y="513" as="targetPoint" />
          </mxGeometry>
        </mxCell>
        <mxCell id="k_sBdBxjnJnmiXeVj0B4-55" value="" style="endArrow=none;html=1;rounded=0;exitX=1;exitY=0.5;exitDx=0;exitDy=0;" edge="1" parent="1" source="k_sBdBxjnJnmiXeVj0B4-50">
          <mxGeometry width="50" height="50" relative="1" as="geometry">
            <mxPoint x="-106.5" y="653" as="sourcePoint" />
            <mxPoint x="-56.5" y="603" as="targetPoint" />
          </mxGeometry>
        </mxCell>
        <mxCell id="k_sBdBxjnJnmiXeVj0B4-56" value="" style="endArrow=none;html=1;rounded=0;entryX=0.149;entryY=1.021;entryDx=0;entryDy=0;entryPerimeter=0;" edge="1" parent="1" target="k_sBdBxjnJnmiXeVj0B4-44">
          <mxGeometry width="50" height="50" relative="1" as="geometry">
            <mxPoint x="-126.5" y="663" as="sourcePoint" />
            <mxPoint x="-76.5" y="613" as="targetPoint" />
          </mxGeometry>
        </mxCell>
        <mxCell id="k_sBdBxjnJnmiXeVj0B4-57" value="" style="endArrow=none;html=1;rounded=0;entryX=0.25;entryY=1;entryDx=0;entryDy=0;" edge="1" parent="1" target="k_sBdBxjnJnmiXeVj0B4-44">
          <mxGeometry width="50" height="50" relative="1" as="geometry">
            <mxPoint x="-76.5" y="693" as="sourcePoint" />
            <mxPoint x="-26.5" y="643" as="targetPoint" />
          </mxGeometry>
        </mxCell>
        <mxCell id="k_sBdBxjnJnmiXeVj0B4-58" value="" style="endArrow=none;html=1;rounded=0;entryX=0;entryY=0.5;entryDx=0;entryDy=0;" edge="1" parent="1">
          <mxGeometry width="50" height="50" relative="1" as="geometry">
            <mxPoint x="10.5" y="590" as="sourcePoint" />
            <mxPoint x="83.5" y="590" as="targetPoint" />
          </mxGeometry>
        </mxCell>
        <mxCell id="k_sBdBxjnJnmiXeVj0B4-59" value="n" style="edgeLabel;html=1;align=center;verticalAlign=middle;resizable=0;points=[];" vertex="1" connectable="0" parent="k_sBdBxjnJnmiXeVj0B4-58">
          <mxGeometry x="-0.2407" y="1" relative="1" as="geometry">
            <mxPoint as="offset" />
          </mxGeometry>
        </mxCell>
        <mxCell id="k_sBdBxjnJnmiXeVj0B4-60" value="水产品" style="rounded=0;whiteSpace=wrap;html=1;" vertex="1" parent="1">
          <mxGeometry x="212" y="569" width="70" height="42" as="geometry" />
        </mxCell>
        <mxCell id="k_sBdBxjnJnmiXeVj0B4-61" value="ID" style="ellipse;whiteSpace=wrap;html=1;" vertex="1" parent="1">
          <mxGeometry x="262" y="419" width="62" height="42" as="geometry" />
        </mxCell>
        <mxCell id="k_sBdBxjnJnmiXeVj0B4-62" value="种类" style="ellipse;whiteSpace=wrap;html=1;" vertex="1" parent="1">
          <mxGeometry x="387" y="489" width="63" height="42" as="geometry" />
        </mxCell>
        <mxCell id="k_sBdBxjnJnmiXeVj0B4-63" value="量" style="ellipse;whiteSpace=wrap;html=1;" vertex="1" parent="1">
          <mxGeometry x="392" y="589" width="63" height="42" as="geometry" />
        </mxCell>
        <mxCell id="k_sBdBxjnJnmiXeVj0B4-64" value="所产水域" style="ellipse;whiteSpace=wrap;html=1;" vertex="1" parent="1">
          <mxGeometry x="336" y="679" width="63" height="42" as="geometry" />
        </mxCell>
        <mxCell id="k_sBdBxjnJnmiXeVj0B4-65" value="保质期" style="ellipse;whiteSpace=wrap;html=1;" vertex="1" parent="1">
          <mxGeometry x="390" y="542.5" width="64" height="42" as="geometry" />
        </mxCell>
        <mxCell id="k_sBdBxjnJnmiXeVj0B4-66" value="质检结果" style="ellipse;whiteSpace=wrap;html=1;" vertex="1" parent="1">
          <mxGeometry x="343.5" y="447" width="63.5" height="42" as="geometry" />
        </mxCell>
        <mxCell id="k_sBdBxjnJnmiXeVj0B4-67" value="产出时间" style="ellipse;whiteSpace=wrap;html=1;" vertex="1" parent="1">
          <mxGeometry x="280.5" y="709" width="63" height="42" as="geometry" />
        </mxCell>
        <mxCell id="k_sBdBxjnJnmiXeVj0B4-68" value="所属从业者" style="ellipse;whiteSpace=wrap;html=1;" vertex="1" parent="1">
          <mxGeometry x="372" y="637" width="62.5" height="42" as="geometry" />
        </mxCell>
        <mxCell id="k_sBdBxjnJnmiXeVj0B4-69" value="" style="endArrow=none;html=1;rounded=0;" edge="1" parent="1">
          <mxGeometry width="50" height="50" relative="1" as="geometry">
            <mxPoint x="283" y="446" as="sourcePoint" />
            <mxPoint x="303" y="446" as="targetPoint" />
          </mxGeometry>
        </mxCell>
        <mxCell id="k_sBdBxjnJnmiXeVj0B4-70" value="" style="endArrow=none;html=1;rounded=0;exitX=0.686;exitY=-0.011;exitDx=0;exitDy=0;exitPerimeter=0;" edge="1" parent="1" source="k_sBdBxjnJnmiXeVj0B4-60">
          <mxGeometry width="50" height="50" relative="1" as="geometry">
            <mxPoint x="242" y="511" as="sourcePoint" />
            <mxPoint x="292" y="461" as="targetPoint" />
          </mxGeometry>
        </mxCell>
        <mxCell id="k_sBdBxjnJnmiXeVj0B4-71" value="举报" style="rhombus;whiteSpace=wrap;html=1;" vertex="1" parent="1">
          <mxGeometry x="80" y="570" width="82" height="40" as="geometry" />
        </mxCell>
        <mxCell id="k_sBdBxjnJnmiXeVj0B4-72" value="" style="endArrow=classic;html=1;rounded=0;" edge="1" parent="1">
          <mxGeometry relative="1" as="geometry">
            <mxPoint x="162" y="589.76" as="sourcePoint" />
            <mxPoint x="212" y="589.76" as="targetPoint" />
          </mxGeometry>
        </mxCell>
        <mxCell id="k_sBdBxjnJnmiXeVj0B4-73" value="m" style="edgeLabel;resizable=0;html=1;align=center;verticalAlign=middle;" connectable="0" vertex="1" parent="k_sBdBxjnJnmiXeVj0B4-72">
          <mxGeometry relative="1" as="geometry" />
        </mxCell>
        <mxCell id="k_sBdBxjnJnmiXeVj0B4-74" value="" style="endArrow=none;html=1;rounded=0;" edge="1" parent="1">
          <mxGeometry width="50" height="50" relative="1" as="geometry">
            <mxPoint x="-110" y="160" as="sourcePoint" />
            <mxPoint x="-90" y="160" as="targetPoint" />
          </mxGeometry>
        </mxCell>
        <mxCell id="k_sBdBxjnJnmiXeVj0B4-75" value="" style="endArrow=none;html=1;rounded=0;" edge="1" parent="1">
          <mxGeometry width="50" height="50" relative="1" as="geometry">
            <mxPoint x="410" y="222" as="sourcePoint" />
            <mxPoint x="430" y="222" as="targetPoint" />
          </mxGeometry>
        </mxCell>
        <mxCell id="k_sBdBxjnJnmiXeVj0B4-76" value="" style="endArrow=none;html=1;rounded=0;" edge="1" parent="1">
          <mxGeometry width="50" height="50" relative="1" as="geometry">
            <mxPoint x="-116.5" y="480" as="sourcePoint" />
            <mxPoint x="-96.5" y="480" as="targetPoint" />
          </mxGeometry>
        </mxCell>
        <mxCell id="k_sBdBxjnJnmiXeVj0B4-77" value="" style="endArrow=none;html=1;rounded=0;" edge="1" parent="1">
          <mxGeometry width="50" height="50" relative="1" as="geometry">
            <mxPoint x="270" y="570" as="sourcePoint" />
            <mxPoint x="343.5" y="470" as="targetPoint" />
          </mxGeometry>
        </mxCell>
        <mxCell id="k_sBdBxjnJnmiXeVj0B4-78" value="" style="endArrow=none;html=1;rounded=0;entryX=0.002;entryY=0.434;entryDx=0;entryDy=0;entryPerimeter=0;exitX=1;exitY=0.25;exitDx=0;exitDy=0;" edge="1" parent="1" source="k_sBdBxjnJnmiXeVj0B4-60" target="k_sBdBxjnJnmiXeVj0B4-62">
          <mxGeometry width="50" height="50" relative="1" as="geometry">
            <mxPoint x="330" y="560" as="sourcePoint" />
            <mxPoint x="380" y="510" as="targetPoint" />
          </mxGeometry>
        </mxCell>
        <mxCell id="k_sBdBxjnJnmiXeVj0B4-79" value="" style="endArrow=none;html=1;rounded=0;exitX=1;exitY=0.5;exitDx=0;exitDy=0;" edge="1" parent="1" source="k_sBdBxjnJnmiXeVj0B4-60">
          <mxGeometry width="50" height="50" relative="1" as="geometry">
            <mxPoint x="340" y="610" as="sourcePoint" />
            <mxPoint x="390" y="560" as="targetPoint" />
          </mxGeometry>
        </mxCell>
        <mxCell id="k_sBdBxjnJnmiXeVj0B4-80" value="" style="endArrow=none;html=1;rounded=0;exitX=1;exitY=0.75;exitDx=0;exitDy=0;" edge="1" parent="1" source="k_sBdBxjnJnmiXeVj0B4-60">
          <mxGeometry width="50" height="50" relative="1" as="geometry">
            <mxPoint x="342" y="660" as="sourcePoint" />
            <mxPoint x="392" y="610" as="targetPoint" />
          </mxGeometry>
        </mxCell>
        <mxCell id="k_sBdBxjnJnmiXeVj0B4-81" value="" style="endArrow=none;html=1;rounded=0;exitX=0.984;exitY=0.894;exitDx=0;exitDy=0;exitPerimeter=0;" edge="1" parent="1" source="k_sBdBxjnJnmiXeVj0B4-60">
          <mxGeometry width="50" height="50" relative="1" as="geometry">
            <mxPoint x="322" y="709" as="sourcePoint" />
            <mxPoint x="372" y="659" as="targetPoint" />
          </mxGeometry>
        </mxCell>
        <mxCell id="k_sBdBxjnJnmiXeVj0B4-82" value="" style="endArrow=none;html=1;rounded=0;exitX=0.819;exitY=0.989;exitDx=0;exitDy=0;exitPerimeter=0;" edge="1" parent="1" source="k_sBdBxjnJnmiXeVj0B4-60">
          <mxGeometry width="50" height="50" relative="1" as="geometry">
            <mxPoint x="290" y="740" as="sourcePoint" />
            <mxPoint x="340" y="690" as="targetPoint" />
          </mxGeometry>
        </mxCell>
        <mxCell id="k_sBdBxjnJnmiXeVj0B4-83" value="" style="endArrow=none;html=1;rounded=0;exitX=0.689;exitY=1.016;exitDx=0;exitDy=0;exitPerimeter=0;" edge="1" parent="1" source="k_sBdBxjnJnmiXeVj0B4-60">
          <mxGeometry width="50" height="50" relative="1" as="geometry">
            <mxPoint x="260" y="760" as="sourcePoint" />
            <mxPoint x="310" y="710" as="targetPoint" />
          </mxGeometry>
        </mxCell>
        <mxCell id="k_sBdBxjnJnmiXeVj0B4-84" value="渔业从业者" style="rounded=0;whiteSpace=wrap;html=1;" vertex="1" parent="1">
          <mxGeometry x="222.5" y="935" width="65" height="40" as="geometry" />
        </mxCell>
        <mxCell id="k_sBdBxjnJnmiXeVj0B4-85" value="身份证号" style="ellipse;whiteSpace=wrap;html=1;" vertex="1" parent="1">
          <mxGeometry x="360.5" y="882" width="59" height="40" as="geometry" />
        </mxCell>
        <mxCell id="k_sBdBxjnJnmiXeVj0B4-86" value="违规状态" style="ellipse;whiteSpace=wrap;html=1;" vertex="1" parent="1">
          <mxGeometry x="351.5" y="1004" width="61" height="38" as="geometry" />
        </mxCell>
        <mxCell id="k_sBdBxjnJnmiXeVj0B4-87" value="真实姓名" style="ellipse;whiteSpace=wrap;html=1;" vertex="1" parent="1">
          <mxGeometry x="287.5" y="844" width="62" height="38" as="geometry" />
        </mxCell>
        <mxCell id="k_sBdBxjnJnmiXeVj0B4-88" value="居住地" style="ellipse;whiteSpace=wrap;html=1;" vertex="1" parent="1">
          <mxGeometry x="377.5" y="944" width="57" height="34" as="geometry" />
        </mxCell>
        <mxCell id="k_sBdBxjnJnmiXeVj0B4-89" value="从事工作" style="ellipse;whiteSpace=wrap;html=1;" vertex="1" parent="1">
          <mxGeometry x="277.5" y="1024" width="64" height="42" as="geometry" />
        </mxCell>
        <mxCell id="k_sBdBxjnJnmiXeVj0B4-105" value="用户" style="rounded=0;whiteSpace=wrap;html=1;" vertex="1" parent="1">
          <mxGeometry x="-70" y="935" width="67" height="40" as="geometry" />
        </mxCell>
        <mxCell id="k_sBdBxjnJnmiXeVj0B4-106" value="用户名" style="ellipse;whiteSpace=wrap;html=1;" vertex="1" parent="1">
          <mxGeometry x="-200" y="860" width="60" height="40" as="geometry" />
        </mxCell>
        <mxCell id="k_sBdBxjnJnmiXeVj0B4-107" value="ID" style="ellipse;whiteSpace=wrap;html=1;" vertex="1" parent="1">
          <mxGeometry x="-150" y="820" width="60" height="40" as="geometry" />
        </mxCell>
        <mxCell id="k_sBdBxjnJnmiXeVj0B4-108" value="电话" style="ellipse;whiteSpace=wrap;html=1;" vertex="1" parent="1">
          <mxGeometry x="-220" y="910" width="59" height="40" as="geometry" />
        </mxCell>
        <mxCell id="k_sBdBxjnJnmiXeVj0B4-109" value="密码" style="ellipse;whiteSpace=wrap;html=1;" vertex="1" parent="1">
          <mxGeometry x="-150" y="1040" width="60" height="40" as="geometry" />
        </mxCell>
        <mxCell id="k_sBdBxjnJnmiXeVj0B4-110" value="身份" style="ellipse;whiteSpace=wrap;html=1;" vertex="1" parent="1">
          <mxGeometry x="-200" y="1008" width="60" height="40" as="geometry" />
        </mxCell>
        <mxCell id="k_sBdBxjnJnmiXeVj0B4-111" value="性别" style="ellipse;whiteSpace=wrap;html=1;" vertex="1" parent="1">
          <mxGeometry x="-220" y="960" width="57" height="40" as="geometry" />
        </mxCell>
        <mxCell id="k_sBdBxjnJnmiXeVj0B4-112" value="" style="endArrow=none;html=1;rounded=0;entryX=0.25;entryY=0;entryDx=0;entryDy=0;exitX=0.68;exitY=0.983;exitDx=0;exitDy=0;exitPerimeter=0;" edge="1" parent="1" source="k_sBdBxjnJnmiXeVj0B4-107" target="k_sBdBxjnJnmiXeVj0B4-105">
          <mxGeometry width="50" height="50" relative="1" as="geometry">
            <mxPoint x="-90" y="838" as="sourcePoint" />
            <mxPoint x="-40" y="788" as="targetPoint" />
          </mxGeometry>
        </mxCell>
        <mxCell id="k_sBdBxjnJnmiXeVj0B4-113" value="" style="endArrow=none;html=1;rounded=0;entryX=0;entryY=0.25;entryDx=0;entryDy=0;" edge="1" parent="1" target="k_sBdBxjnJnmiXeVj0B4-105">
          <mxGeometry width="50" height="50" relative="1" as="geometry">
            <mxPoint x="-140" y="878" as="sourcePoint" />
            <mxPoint x="-90" y="828" as="targetPoint" />
          </mxGeometry>
        </mxCell>
        <mxCell id="k_sBdBxjnJnmiXeVj0B4-114" value="" style="endArrow=none;html=1;rounded=0;entryX=0;entryY=0.5;entryDx=0;entryDy=0;" edge="1" parent="1" target="k_sBdBxjnJnmiXeVj0B4-105">
          <mxGeometry width="50" height="50" relative="1" as="geometry">
            <mxPoint x="-160" y="928" as="sourcePoint" />
            <mxPoint x="-110" y="878" as="targetPoint" />
          </mxGeometry>
        </mxCell>
        <mxCell id="k_sBdBxjnJnmiXeVj0B4-115" value="" style="endArrow=none;html=1;rounded=0;exitX=1;exitY=0.5;exitDx=0;exitDy=0;" edge="1" parent="1" source="k_sBdBxjnJnmiXeVj0B4-111">
          <mxGeometry width="50" height="50" relative="1" as="geometry">
            <mxPoint x="-120" y="1018" as="sourcePoint" />
            <mxPoint x="-70" y="968" as="targetPoint" />
          </mxGeometry>
        </mxCell>
        <mxCell id="k_sBdBxjnJnmiXeVj0B4-116" value="" style="endArrow=none;html=1;rounded=0;entryX=0.149;entryY=1.021;entryDx=0;entryDy=0;entryPerimeter=0;" edge="1" parent="1" target="k_sBdBxjnJnmiXeVj0B4-105">
          <mxGeometry width="50" height="50" relative="1" as="geometry">
            <mxPoint x="-140" y="1028" as="sourcePoint" />
            <mxPoint x="-90" y="978" as="targetPoint" />
          </mxGeometry>
        </mxCell>
        <mxCell id="k_sBdBxjnJnmiXeVj0B4-117" value="" style="endArrow=none;html=1;rounded=0;entryX=0.25;entryY=1;entryDx=0;entryDy=0;" edge="1" parent="1" target="k_sBdBxjnJnmiXeVj0B4-105">
          <mxGeometry width="50" height="50" relative="1" as="geometry">
            <mxPoint x="-90" y="1058" as="sourcePoint" />
            <mxPoint x="-40" y="1008" as="targetPoint" />
          </mxGeometry>
        </mxCell>
        <mxCell id="k_sBdBxjnJnmiXeVj0B4-118" value="" style="endArrow=none;html=1;rounded=0;entryX=0;entryY=0.5;entryDx=0;entryDy=0;" edge="1" parent="1">
          <mxGeometry width="50" height="50" relative="1" as="geometry">
            <mxPoint x="-3" y="955" as="sourcePoint" />
            <mxPoint x="70" y="955" as="targetPoint" />
          </mxGeometry>
        </mxCell>
        <mxCell id="k_sBdBxjnJnmiXeVj0B4-119" value="n" style="edgeLabel;html=1;align=center;verticalAlign=middle;resizable=0;points=[];" vertex="1" connectable="0" parent="k_sBdBxjnJnmiXeVj0B4-118">
          <mxGeometry x="-0.2407" y="1" relative="1" as="geometry">
            <mxPoint as="offset" />
          </mxGeometry>
        </mxCell>
        <mxCell id="k_sBdBxjnJnmiXeVj0B4-120" value="举报" style="rhombus;whiteSpace=wrap;html=1;" vertex="1" parent="1">
          <mxGeometry x="66.5" y="935" width="82" height="40" as="geometry" />
        </mxCell>
        <mxCell id="k_sBdBxjnJnmiXeVj0B4-121" value="" style="endArrow=none;html=1;rounded=0;" edge="1" parent="1">
          <mxGeometry width="50" height="50" relative="1" as="geometry">
            <mxPoint x="-130" y="845" as="sourcePoint" />
            <mxPoint x="-110" y="845" as="targetPoint" />
          </mxGeometry>
        </mxCell>
        <mxCell id="k_sBdBxjnJnmiXeVj0B4-122" value="" style="endArrow=classic;html=1;rounded=0;entryX=0;entryY=0.5;entryDx=0;entryDy=0;" edge="1" parent="1" target="k_sBdBxjnJnmiXeVj0B4-84">
          <mxGeometry width="50" height="50" relative="1" as="geometry">
            <mxPoint x="148.5" y="955" as="sourcePoint" />
            <mxPoint x="198.5" y="905" as="targetPoint" />
          </mxGeometry>
        </mxCell>
        <mxCell id="k_sBdBxjnJnmiXeVj0B4-128" value="m" style="edgeLabel;html=1;align=center;verticalAlign=middle;resizable=0;points=[];" vertex="1" connectable="0" parent="k_sBdBxjnJnmiXeVj0B4-122">
          <mxGeometry x="-0.119" relative="1" as="geometry">
            <mxPoint as="offset" />
          </mxGeometry>
        </mxCell>
        <mxCell id="k_sBdBxjnJnmiXeVj0B4-123" value="" style="endArrow=none;html=1;rounded=0;exitX=0.5;exitY=0;exitDx=0;exitDy=0;entryX=0;entryY=1;entryDx=0;entryDy=0;" edge="1" parent="1" source="k_sBdBxjnJnmiXeVj0B4-84" target="k_sBdBxjnJnmiXeVj0B4-87">
          <mxGeometry width="50" height="50" relative="1" as="geometry">
            <mxPoint x="240" y="920" as="sourcePoint" />
            <mxPoint x="290" y="870" as="targetPoint" />
          </mxGeometry>
        </mxCell>
        <mxCell id="k_sBdBxjnJnmiXeVj0B4-124" value="" style="endArrow=none;html=1;rounded=0;" edge="1" parent="1">
          <mxGeometry width="50" height="50" relative="1" as="geometry">
            <mxPoint x="287" y="944" as="sourcePoint" />
            <mxPoint x="360" y="900" as="targetPoint" />
          </mxGeometry>
        </mxCell>
        <mxCell id="k_sBdBxjnJnmiXeVj0B4-125" value="" style="endArrow=none;html=1;rounded=0;entryX=0;entryY=0.5;entryDx=0;entryDy=0;" edge="1" parent="1" target="k_sBdBxjnJnmiXeVj0B4-88">
          <mxGeometry width="50" height="50" relative="1" as="geometry">
            <mxPoint x="287.5" y="960" as="sourcePoint" />
            <mxPoint x="337.5" y="910" as="targetPoint" />
          </mxGeometry>
        </mxCell>
        <mxCell id="k_sBdBxjnJnmiXeVj0B4-126" value="" style="endArrow=none;html=1;rounded=0;entryX=0.01;entryY=0.384;entryDx=0;entryDy=0;entryPerimeter=0;" edge="1" parent="1" target="k_sBdBxjnJnmiXeVj0B4-86">
          <mxGeometry width="50" height="50" relative="1" as="geometry">
            <mxPoint x="287" y="970" as="sourcePoint" />
            <mxPoint x="337" y="920" as="targetPoint" />
          </mxGeometry>
        </mxCell>
        <mxCell id="k_sBdBxjnJnmiXeVj0B4-127" value="" style="endArrow=none;html=1;rounded=0;exitX=0.392;exitY=0.008;exitDx=0;exitDy=0;exitPerimeter=0;" edge="1" parent="1" source="k_sBdBxjnJnmiXeVj0B4-89">
          <mxGeometry width="50" height="50" relative="1" as="geometry">
            <mxPoint x="227.5" y="1025" as="sourcePoint" />
            <mxPoint x="277.5" y="975" as="targetPoint" />
          </mxGeometry>
        </mxCell>
        <mxCell id="k_sBdBxjnJnmiXeVj0B4-135" value="渔业从业者" style="rounded=0;whiteSpace=wrap;html=1;" vertex="1" parent="1">
          <mxGeometry x="-65.5" y="1193" width="65" height="40" as="geometry" />
        </mxCell>
        <mxCell id="k_sBdBxjnJnmiXeVj0B4-136" value="身份证号" style="ellipse;whiteSpace=wrap;html=1;" vertex="1" parent="1">
          <mxGeometry x="-189" y="1133" width="59" height="40" as="geometry" />
        </mxCell>
        <mxCell id="k_sBdBxjnJnmiXeVj0B4-137" value="违规状态" style="ellipse;whiteSpace=wrap;html=1;" vertex="1" parent="1">
          <mxGeometry x="-126.5" y="1283" width="61" height="38" as="geometry" />
        </mxCell>
        <mxCell id="k_sBdBxjnJnmiXeVj0B4-138" value="真实姓名" style="ellipse;whiteSpace=wrap;html=1;" vertex="1" parent="1">
          <mxGeometry x="-120" y="1113" width="62" height="38" as="geometry" />
        </mxCell>
        <mxCell id="k_sBdBxjnJnmiXeVj0B4-139" value="居住地" style="ellipse;whiteSpace=wrap;html=1;" vertex="1" parent="1">
          <mxGeometry x="-220" y="1193" width="58" height="40" as="geometry" />
        </mxCell>
        <mxCell id="k_sBdBxjnJnmiXeVj0B4-140" value="从事工作" style="ellipse;whiteSpace=wrap;html=1;" vertex="1" parent="1">
          <mxGeometry x="-195.5" y="1253" width="59" height="37" as="geometry" />
        </mxCell>
        <mxCell id="k_sBdBxjnJnmiXeVj0B4-141" value="" style="endArrow=none;html=1;rounded=0;entryX=1;entryY=1;entryDx=0;entryDy=0;" edge="1" parent="1" target="k_sBdBxjnJnmiXeVj0B4-138">
          <mxGeometry width="50" height="50" relative="1" as="geometry">
            <mxPoint x="-40" y="1193" as="sourcePoint" />
            <mxPoint x="10" y="1143" as="targetPoint" />
          </mxGeometry>
        </mxCell>
        <mxCell id="k_sBdBxjnJnmiXeVj0B4-142" value="" style="endArrow=none;html=1;rounded=0;exitX=1;exitY=1;exitDx=0;exitDy=0;entryX=0;entryY=0.25;entryDx=0;entryDy=0;" edge="1" parent="1" source="k_sBdBxjnJnmiXeVj0B4-136" target="k_sBdBxjnJnmiXeVj0B4-135">
          <mxGeometry width="50" height="50" relative="1" as="geometry">
            <mxPoint x="-120" y="1253" as="sourcePoint" />
            <mxPoint x="-70" y="1203" as="targetPoint" />
          </mxGeometry>
        </mxCell>
        <mxCell id="k_sBdBxjnJnmiXeVj0B4-143" value="" style="endArrow=none;html=1;rounded=0;exitX=1;exitY=0.5;exitDx=0;exitDy=0;entryX=0;entryY=0.5;entryDx=0;entryDy=0;" edge="1" parent="1" source="k_sBdBxjnJnmiXeVj0B4-139" target="k_sBdBxjnJnmiXeVj0B4-135">
          <mxGeometry width="50" height="50" relative="1" as="geometry">
            <mxPoint x="-120" y="1263" as="sourcePoint" />
            <mxPoint x="-70" y="1213" as="targetPoint" />
          </mxGeometry>
        </mxCell>
        <mxCell id="k_sBdBxjnJnmiXeVj0B4-144" value="" style="endArrow=none;html=1;rounded=0;exitX=1;exitY=0.5;exitDx=0;exitDy=0;entryX=0;entryY=0.75;entryDx=0;entryDy=0;" edge="1" parent="1" source="k_sBdBxjnJnmiXeVj0B4-140" target="k_sBdBxjnJnmiXeVj0B4-135">
          <mxGeometry width="50" height="50" relative="1" as="geometry">
            <mxPoint x="-120" y="1273" as="sourcePoint" />
            <mxPoint x="-70" y="1223" as="targetPoint" />
          </mxGeometry>
        </mxCell>
        <mxCell id="k_sBdBxjnJnmiXeVj0B4-145" value="" style="endArrow=none;html=1;rounded=0;" edge="1" parent="1">
          <mxGeometry width="50" height="50" relative="1" as="geometry">
            <mxPoint x="-90" y="1283" as="sourcePoint" />
            <mxPoint x="-40" y="1233" as="targetPoint" />
          </mxGeometry>
        </mxCell>
        <mxCell id="k_sBdBxjnJnmiXeVj0B4-146" value="可进行渔业活动" style="rounded=0;whiteSpace=wrap;html=1;" vertex="1" parent="1">
          <mxGeometry x="230" y="1193" width="67" height="40" as="geometry" />
        </mxCell>
        <mxCell id="k_sBdBxjnJnmiXeVj0B4-147" value="活动" style="ellipse;whiteSpace=wrap;html=1;" vertex="1" parent="1">
          <mxGeometry x="324" y="1263" width="60" height="40" as="geometry" />
        </mxCell>
        <mxCell id="k_sBdBxjnJnmiXeVj0B4-148" value="时间段" style="ellipse;whiteSpace=wrap;html=1;" vertex="1" parent="1">
          <mxGeometry x="352" y="1193" width="62" height="40" as="geometry" />
        </mxCell>
        <mxCell id="k_sBdBxjnJnmiXeVj0B4-149" value="海域" style="ellipse;whiteSpace=wrap;html=1;" vertex="1" parent="1">
          <mxGeometry x="319" y="1122" width="70" height="40" as="geometry" />
        </mxCell>
        <mxCell id="k_sBdBxjnJnmiXeVj0B4-150" value="" style="endArrow=none;html=1;rounded=0;entryX=0;entryY=1;entryDx=0;entryDy=0;exitX=0.75;exitY=0;exitDx=0;exitDy=0;" edge="1" parent="1" source="k_sBdBxjnJnmiXeVj0B4-146" target="k_sBdBxjnJnmiXeVj0B4-149">
          <mxGeometry width="50" height="50" relative="1" as="geometry">
            <mxPoint x="287.5" y="1191" as="sourcePoint" />
            <mxPoint x="317.5" y="1161" as="targetPoint" />
          </mxGeometry>
        </mxCell>
        <mxCell id="k_sBdBxjnJnmiXeVj0B4-151" value="" style="endArrow=none;html=1;rounded=0;entryX=0;entryY=0.5;entryDx=0;entryDy=0;exitX=1;exitY=0.5;exitDx=0;exitDy=0;" edge="1" parent="1" source="k_sBdBxjnJnmiXeVj0B4-146" target="k_sBdBxjnJnmiXeVj0B4-148">
          <mxGeometry width="50" height="50" relative="1" as="geometry">
            <mxPoint x="300" y="1213" as="sourcePoint" />
            <mxPoint x="349.5" y="1162" as="targetPoint" />
          </mxGeometry>
        </mxCell>
        <mxCell id="k_sBdBxjnJnmiXeVj0B4-152" value="" style="endArrow=none;html=1;rounded=0;exitX=0.043;exitY=0.295;exitDx=0;exitDy=0;exitPerimeter=0;" edge="1" parent="1" source="k_sBdBxjnJnmiXeVj0B4-147">
          <mxGeometry width="50" height="50" relative="1" as="geometry">
            <mxPoint x="237.5" y="1281" as="sourcePoint" />
            <mxPoint x="290" y="1233" as="targetPoint" />
          </mxGeometry>
        </mxCell>
        <mxCell id="k_sBdBxjnJnmiXeVj0B4-153" value="查看" style="rhombus;whiteSpace=wrap;html=1;" vertex="1" parent="1">
          <mxGeometry x="66.5" y="1179" width="99" height="68" as="geometry" />
        </mxCell>
        <mxCell id="k_sBdBxjnJnmiXeVj0B4-154" value="" style="endArrow=none;html=1;rounded=0;entryX=0;entryY=0.5;entryDx=0;entryDy=0;" edge="1" parent="1" target="k_sBdBxjnJnmiXeVj0B4-153">
          <mxGeometry width="50" height="50" relative="1" as="geometry">
            <mxPoint y="1213" as="sourcePoint" />
            <mxPoint x="50" y="1163" as="targetPoint" />
          </mxGeometry>
        </mxCell>
        <mxCell id="k_sBdBxjnJnmiXeVj0B4-156" value="n" style="edgeLabel;html=1;align=center;verticalAlign=middle;resizable=0;points=[];" vertex="1" connectable="0" parent="k_sBdBxjnJnmiXeVj0B4-154">
          <mxGeometry x="0.0024" y="1" relative="1" as="geometry">
            <mxPoint as="offset" />
          </mxGeometry>
        </mxCell>
        <mxCell id="k_sBdBxjnJnmiXeVj0B4-155" value="" style="endArrow=none;html=1;rounded=0;exitX=1;exitY=0.5;exitDx=0;exitDy=0;" edge="1" parent="1" source="k_sBdBxjnJnmiXeVj0B4-153">
          <mxGeometry width="50" height="50" relative="1" as="geometry">
            <mxPoint x="167" y="1213" as="sourcePoint" />
            <mxPoint x="230" y="1213" as="targetPoint" />
          </mxGeometry>
        </mxCell>
        <mxCell id="k_sBdBxjnJnmiXeVj0B4-157" value="m" style="edgeLabel;html=1;align=center;verticalAlign=middle;resizable=0;points=[];" vertex="1" connectable="0" parent="k_sBdBxjnJnmiXeVj0B4-155">
          <mxGeometry x="-0.0041" y="1" relative="1" as="geometry">
            <mxPoint as="offset" />
          </mxGeometry>
        </mxCell>
        <mxCell id="k_sBdBxjnJnmiXeVj0B4-159" value="渔业从业者" style="rounded=0;whiteSpace=wrap;html=1;" vertex="1" parent="1">
          <mxGeometry x="-65" y="1520" width="65" height="40" as="geometry" />
        </mxCell>
        <mxCell id="k_sBdBxjnJnmiXeVj0B4-160" value="身份证号" style="ellipse;whiteSpace=wrap;html=1;" vertex="1" parent="1">
          <mxGeometry x="-191.5" y="1460" width="59" height="40" as="geometry" />
        </mxCell>
        <mxCell id="k_sBdBxjnJnmiXeVj0B4-161" value="违规状态" style="ellipse;whiteSpace=wrap;html=1;" vertex="1" parent="1">
          <mxGeometry x="-129" y="1610" width="61" height="38" as="geometry" />
        </mxCell>
        <mxCell id="k_sBdBxjnJnmiXeVj0B4-162" value="真实姓名" style="ellipse;whiteSpace=wrap;html=1;" vertex="1" parent="1">
          <mxGeometry x="-122.5" y="1440" width="62" height="38" as="geometry" />
        </mxCell>
        <mxCell id="k_sBdBxjnJnmiXeVj0B4-163" value="居住地" style="ellipse;whiteSpace=wrap;html=1;" vertex="1" parent="1">
          <mxGeometry x="-222.5" y="1520" width="58" height="40" as="geometry" />
        </mxCell>
        <mxCell id="k_sBdBxjnJnmiXeVj0B4-164" value="从事工作" style="ellipse;whiteSpace=wrap;html=1;" vertex="1" parent="1">
          <mxGeometry x="-198" y="1580" width="59" height="37" as="geometry" />
        </mxCell>
        <mxCell id="k_sBdBxjnJnmiXeVj0B4-165" value="" style="endArrow=none;html=1;rounded=0;entryX=1;entryY=1;entryDx=0;entryDy=0;" edge="1" parent="1" target="k_sBdBxjnJnmiXeVj0B4-162">
          <mxGeometry width="50" height="50" relative="1" as="geometry">
            <mxPoint x="-42.5" y="1520" as="sourcePoint" />
            <mxPoint x="7.5" y="1470" as="targetPoint" />
          </mxGeometry>
        </mxCell>
        <mxCell id="k_sBdBxjnJnmiXeVj0B4-166" value="" style="endArrow=none;html=1;rounded=0;exitX=1;exitY=1;exitDx=0;exitDy=0;entryX=0;entryY=0.25;entryDx=0;entryDy=0;" edge="1" parent="1" source="k_sBdBxjnJnmiXeVj0B4-160" target="k_sBdBxjnJnmiXeVj0B4-159">
          <mxGeometry width="50" height="50" relative="1" as="geometry">
            <mxPoint x="-122.5" y="1580" as="sourcePoint" />
            <mxPoint x="-72.5" y="1530" as="targetPoint" />
          </mxGeometry>
        </mxCell>
        <mxCell id="k_sBdBxjnJnmiXeVj0B4-167" value="" style="endArrow=none;html=1;rounded=0;exitX=1;exitY=0.5;exitDx=0;exitDy=0;entryX=0;entryY=0.5;entryDx=0;entryDy=0;" edge="1" parent="1" source="k_sBdBxjnJnmiXeVj0B4-163" target="k_sBdBxjnJnmiXeVj0B4-159">
          <mxGeometry width="50" height="50" relative="1" as="geometry">
            <mxPoint x="-122.5" y="1590" as="sourcePoint" />
            <mxPoint x="-72.5" y="1540" as="targetPoint" />
          </mxGeometry>
        </mxCell>
        <mxCell id="k_sBdBxjnJnmiXeVj0B4-168" value="" style="endArrow=none;html=1;rounded=0;exitX=1;exitY=0.5;exitDx=0;exitDy=0;entryX=0;entryY=0.75;entryDx=0;entryDy=0;" edge="1" parent="1" source="k_sBdBxjnJnmiXeVj0B4-164" target="k_sBdBxjnJnmiXeVj0B4-159">
          <mxGeometry width="50" height="50" relative="1" as="geometry">
            <mxPoint x="-122.5" y="1600" as="sourcePoint" />
            <mxPoint x="-72.5" y="1550" as="targetPoint" />
          </mxGeometry>
        </mxCell>
        <mxCell id="k_sBdBxjnJnmiXeVj0B4-169" value="" style="endArrow=none;html=1;rounded=0;" edge="1" parent="1">
          <mxGeometry width="50" height="50" relative="1" as="geometry">
            <mxPoint x="-92.5" y="1610" as="sourcePoint" />
            <mxPoint x="-42.5" y="1560" as="targetPoint" />
          </mxGeometry>
        </mxCell>
        <mxCell id="k_sBdBxjnJnmiXeVj0B4-170" value="生产" style="rhombus;whiteSpace=wrap;html=1;" vertex="1" parent="1">
          <mxGeometry x="75" y="1520" width="82" height="40" as="geometry" />
        </mxCell>
        <mxCell id="k_sBdBxjnJnmiXeVj0B4-171" value="" style="endArrow=none;html=1;rounded=0;entryX=0;entryY=0.5;entryDx=0;entryDy=0;" edge="1" parent="1" target="k_sBdBxjnJnmiXeVj0B4-170">
          <mxGeometry width="50" height="50" relative="1" as="geometry">
            <mxPoint y="1540" as="sourcePoint" />
            <mxPoint x="50" y="1490" as="targetPoint" />
          </mxGeometry>
        </mxCell>
        <mxCell id="k_sBdBxjnJnmiXeVj0B4-191" value="1" style="edgeLabel;html=1;align=center;verticalAlign=middle;resizable=0;points=[];" vertex="1" connectable="0" parent="k_sBdBxjnJnmiXeVj0B4-171">
          <mxGeometry x="0.0535" relative="1" as="geometry">
            <mxPoint as="offset" />
          </mxGeometry>
        </mxCell>
        <mxCell id="k_sBdBxjnJnmiXeVj0B4-172" value="水产品" style="rounded=0;whiteSpace=wrap;html=1;" vertex="1" parent="1">
          <mxGeometry x="235.5" y="1524" width="70" height="42" as="geometry" />
        </mxCell>
        <mxCell id="k_sBdBxjnJnmiXeVj0B4-173" value="ID" style="ellipse;whiteSpace=wrap;html=1;" vertex="1" parent="1">
          <mxGeometry x="287" y="1374" width="62" height="42" as="geometry" />
        </mxCell>
        <mxCell id="k_sBdBxjnJnmiXeVj0B4-174" value="种类" style="ellipse;whiteSpace=wrap;html=1;" vertex="1" parent="1">
          <mxGeometry x="412" y="1444" width="63" height="42" as="geometry" />
        </mxCell>
        <mxCell id="k_sBdBxjnJnmiXeVj0B4-175" value="量" style="ellipse;whiteSpace=wrap;html=1;" vertex="1" parent="1">
          <mxGeometry x="417" y="1544" width="63" height="42" as="geometry" />
        </mxCell>
        <mxCell id="k_sBdBxjnJnmiXeVj0B4-176" value="所产水域" style="ellipse;whiteSpace=wrap;html=1;" vertex="1" parent="1">
          <mxGeometry x="361" y="1634" width="63" height="42" as="geometry" />
        </mxCell>
        <mxCell id="k_sBdBxjnJnmiXeVj0B4-177" value="保质期" style="ellipse;whiteSpace=wrap;html=1;" vertex="1" parent="1">
          <mxGeometry x="415" y="1497.5" width="64" height="42" as="geometry" />
        </mxCell>
        <mxCell id="k_sBdBxjnJnmiXeVj0B4-178" value="质检结果" style="ellipse;whiteSpace=wrap;html=1;" vertex="1" parent="1">
          <mxGeometry x="368.5" y="1402" width="63.5" height="42" as="geometry" />
        </mxCell>
        <mxCell id="k_sBdBxjnJnmiXeVj0B4-179" value="产出时间" style="ellipse;whiteSpace=wrap;html=1;" vertex="1" parent="1">
          <mxGeometry x="305.5" y="1664" width="63" height="42" as="geometry" />
        </mxCell>
        <mxCell id="k_sBdBxjnJnmiXeVj0B4-180" value="所属从业者" style="ellipse;whiteSpace=wrap;html=1;" vertex="1" parent="1">
          <mxGeometry x="397" y="1592" width="62.5" height="42" as="geometry" />
        </mxCell>
        <mxCell id="k_sBdBxjnJnmiXeVj0B4-181" value="" style="endArrow=none;html=1;rounded=0;" edge="1" parent="1">
          <mxGeometry width="50" height="50" relative="1" as="geometry">
            <mxPoint x="308" y="1401" as="sourcePoint" />
            <mxPoint x="328" y="1401" as="targetPoint" />
          </mxGeometry>
        </mxCell>
        <mxCell id="k_sBdBxjnJnmiXeVj0B4-182" value="" style="endArrow=none;html=1;rounded=0;exitX=0.686;exitY=-0.011;exitDx=0;exitDy=0;exitPerimeter=0;" edge="1" parent="1" source="k_sBdBxjnJnmiXeVj0B4-172">
          <mxGeometry width="50" height="50" relative="1" as="geometry">
            <mxPoint x="267" y="1466" as="sourcePoint" />
            <mxPoint x="317" y="1416" as="targetPoint" />
          </mxGeometry>
        </mxCell>
        <mxCell id="k_sBdBxjnJnmiXeVj0B4-183" value="" style="endArrow=none;html=1;rounded=0;" edge="1" parent="1">
          <mxGeometry width="50" height="50" relative="1" as="geometry">
            <mxPoint x="295" y="1525" as="sourcePoint" />
            <mxPoint x="368.5" y="1425" as="targetPoint" />
          </mxGeometry>
        </mxCell>
        <mxCell id="k_sBdBxjnJnmiXeVj0B4-184" value="" style="endArrow=none;html=1;rounded=0;entryX=0.002;entryY=0.434;entryDx=0;entryDy=0;entryPerimeter=0;exitX=1;exitY=0.25;exitDx=0;exitDy=0;" edge="1" parent="1" source="k_sBdBxjnJnmiXeVj0B4-172" target="k_sBdBxjnJnmiXeVj0B4-174">
          <mxGeometry width="50" height="50" relative="1" as="geometry">
            <mxPoint x="355" y="1515" as="sourcePoint" />
            <mxPoint x="405" y="1465" as="targetPoint" />
          </mxGeometry>
        </mxCell>
        <mxCell id="k_sBdBxjnJnmiXeVj0B4-185" value="" style="endArrow=none;html=1;rounded=0;exitX=1;exitY=0.5;exitDx=0;exitDy=0;" edge="1" parent="1" source="k_sBdBxjnJnmiXeVj0B4-172">
          <mxGeometry width="50" height="50" relative="1" as="geometry">
            <mxPoint x="365" y="1565" as="sourcePoint" />
            <mxPoint x="415" y="1515" as="targetPoint" />
          </mxGeometry>
        </mxCell>
        <mxCell id="k_sBdBxjnJnmiXeVj0B4-186" value="" style="endArrow=none;html=1;rounded=0;exitX=1;exitY=0.75;exitDx=0;exitDy=0;" edge="1" parent="1" source="k_sBdBxjnJnmiXeVj0B4-172">
          <mxGeometry width="50" height="50" relative="1" as="geometry">
            <mxPoint x="367" y="1615" as="sourcePoint" />
            <mxPoint x="417" y="1565" as="targetPoint" />
          </mxGeometry>
        </mxCell>
        <mxCell id="k_sBdBxjnJnmiXeVj0B4-187" value="" style="endArrow=none;html=1;rounded=0;exitX=0.984;exitY=0.894;exitDx=0;exitDy=0;exitPerimeter=0;" edge="1" parent="1" source="k_sBdBxjnJnmiXeVj0B4-172">
          <mxGeometry width="50" height="50" relative="1" as="geometry">
            <mxPoint x="347" y="1664" as="sourcePoint" />
            <mxPoint x="397" y="1614" as="targetPoint" />
          </mxGeometry>
        </mxCell>
        <mxCell id="k_sBdBxjnJnmiXeVj0B4-188" value="" style="endArrow=none;html=1;rounded=0;exitX=0.819;exitY=0.989;exitDx=0;exitDy=0;exitPerimeter=0;" edge="1" parent="1" source="k_sBdBxjnJnmiXeVj0B4-172">
          <mxGeometry width="50" height="50" relative="1" as="geometry">
            <mxPoint x="315" y="1695" as="sourcePoint" />
            <mxPoint x="365" y="1645" as="targetPoint" />
          </mxGeometry>
        </mxCell>
        <mxCell id="k_sBdBxjnJnmiXeVj0B4-189" value="" style="endArrow=none;html=1;rounded=0;exitX=0.689;exitY=1.016;exitDx=0;exitDy=0;exitPerimeter=0;" edge="1" parent="1" source="k_sBdBxjnJnmiXeVj0B4-172">
          <mxGeometry width="50" height="50" relative="1" as="geometry">
            <mxPoint x="285" y="1715" as="sourcePoint" />
            <mxPoint x="335" y="1665" as="targetPoint" />
          </mxGeometry>
        </mxCell>
        <mxCell id="k_sBdBxjnJnmiXeVj0B4-190" value="" style="endArrow=classic;html=1;rounded=0;entryX=0.003;entryY=0.388;entryDx=0;entryDy=0;entryPerimeter=0;exitX=1;exitY=0.5;exitDx=0;exitDy=0;" edge="1" parent="1" source="k_sBdBxjnJnmiXeVj0B4-170" target="k_sBdBxjnJnmiXeVj0B4-172">
          <mxGeometry width="50" height="50" relative="1" as="geometry">
            <mxPoint x="160" y="1540" as="sourcePoint" />
            <mxPoint x="207" y="1489.5" as="targetPoint" />
          </mxGeometry>
        </mxCell>
        <mxCell id="k_sBdBxjnJnmiXeVj0B4-192" value="n" style="edgeLabel;html=1;align=center;verticalAlign=middle;resizable=0;points=[];" vertex="1" connectable="0" parent="k_sBdBxjnJnmiXeVj0B4-190">
          <mxGeometry x="-0.2355" y="2" relative="1" as="geometry">
            <mxPoint as="offset" />
          </mxGeometry>
        </mxCell>
        <mxCell id="k_sBdBxjnJnmiXeVj0B4-193" value="海域" style="rounded=0;whiteSpace=wrap;html=1;" vertex="1" parent="1">
          <mxGeometry x="245.5" y="1872.5" width="60" height="40" as="geometry" />
        </mxCell>
        <mxCell id="k_sBdBxjnJnmiXeVj0B4-194" value="ID" style="ellipse;whiteSpace=wrap;html=1;" vertex="1" parent="1">
          <mxGeometry x="343.5" y="1930" width="60" height="40" as="geometry" />
        </mxCell>
        <mxCell id="k_sBdBxjnJnmiXeVj0B4-195" value="位置" style="ellipse;whiteSpace=wrap;html=1;" vertex="1" parent="1">
          <mxGeometry x="345.25" y="1817" width="60" height="40" as="geometry" />
        </mxCell>
        <mxCell id="k_sBdBxjnJnmiXeVj0B4-196" value="所属" style="ellipse;whiteSpace=wrap;html=1;" vertex="1" parent="1">
          <mxGeometry x="368.5" y="1873" width="60" height="40" as="geometry" />
        </mxCell>
        <mxCell id="k_sBdBxjnJnmiXeVj0B4-197" value="范围" style="ellipse;whiteSpace=wrap;html=1;" vertex="1" parent="1">
          <mxGeometry x="287" y="1785" width="60" height="40" as="geometry" />
        </mxCell>
        <mxCell id="k_sBdBxjnJnmiXeVj0B4-198" value="当前辐射程度" style="ellipse;whiteSpace=wrap;html=1;" vertex="1" parent="1">
          <mxGeometry x="288" y="1960" width="59" height="40" as="geometry" />
        </mxCell>
        <mxCell id="k_sBdBxjnJnmiXeVj0B4-199" value="海域" style="ellipse;whiteSpace=wrap;html=1;" vertex="1" parent="1">
          <mxGeometry x="-672.5" y="1507" width="70" height="40" as="geometry" />
        </mxCell>
        <mxCell id="k_sBdBxjnJnmiXeVj0B4-200" value="环境管理人员" style="rounded=0;whiteSpace=wrap;html=1;" vertex="1" parent="1">
          <mxGeometry x="-67.5" y="1873" width="64.5" height="40" as="geometry" />
        </mxCell>
        <mxCell id="k_sBdBxjnJnmiXeVj0B4-201" value="工号" style="ellipse;whiteSpace=wrap;html=1;" vertex="1" parent="1">
          <mxGeometry x="-139" y="1817" width="60" height="38" as="geometry" />
        </mxCell>
        <mxCell id="k_sBdBxjnJnmiXeVj0B4-202" value="管理区域" style="ellipse;whiteSpace=wrap;html=1;" vertex="1" parent="1">
          <mxGeometry x="-189" y="1872" width="60" height="41" as="geometry" />
        </mxCell>
        <mxCell id="k_sBdBxjnJnmiXeVj0B4-203" value="负责内容" style="ellipse;whiteSpace=wrap;html=1;" vertex="1" parent="1">
          <mxGeometry x="-143" y="1930" width="60" height="41" as="geometry" />
        </mxCell>
        <mxCell id="k_sBdBxjnJnmiXeVj0B4-204" value="" style="endArrow=none;html=1;rounded=0;entryX=0;entryY=0.5;entryDx=0;entryDy=0;" edge="1" parent="1" target="k_sBdBxjnJnmiXeVj0B4-200">
          <mxGeometry width="50" height="50" relative="1" as="geometry">
            <mxPoint x="-130" y="1893" as="sourcePoint" />
            <mxPoint x="-80" y="1840" as="targetPoint" />
          </mxGeometry>
        </mxCell>
        <mxCell id="k_sBdBxjnJnmiXeVj0B4-205" value="" style="endArrow=none;html=1;rounded=0;entryX=0.25;entryY=0;entryDx=0;entryDy=0;" edge="1" parent="1" source="k_sBdBxjnJnmiXeVj0B4-201" target="k_sBdBxjnJnmiXeVj0B4-200">
          <mxGeometry width="50" height="50" relative="1" as="geometry">
            <mxPoint x="-79" y="1886" as="sourcePoint" />
            <mxPoint x="-60" y="1870" as="targetPoint" />
          </mxGeometry>
        </mxCell>
        <mxCell id="k_sBdBxjnJnmiXeVj0B4-206" value="" style="endArrow=none;html=1;rounded=0;entryX=0.25;entryY=1;entryDx=0;entryDy=0;" edge="1" parent="1" target="k_sBdBxjnJnmiXeVj0B4-200">
          <mxGeometry width="50" height="50" relative="1" as="geometry">
            <mxPoint x="-90" y="1940" as="sourcePoint" />
            <mxPoint x="-40" y="1890" as="targetPoint" />
          </mxGeometry>
        </mxCell>
        <mxCell id="k_sBdBxjnJnmiXeVj0B4-207" value="获取和分析" style="rhombus;whiteSpace=wrap;html=1;" vertex="1" parent="1">
          <mxGeometry x="77" y="1870" width="80" height="45" as="geometry" />
        </mxCell>
        <mxCell id="k_sBdBxjnJnmiXeVj0B4-208" value="" style="endArrow=none;html=1;rounded=0;entryX=0;entryY=0.5;entryDx=0;entryDy=0;exitX=1;exitY=0.5;exitDx=0;exitDy=0;" edge="1" parent="1" source="k_sBdBxjnJnmiXeVj0B4-200" target="k_sBdBxjnJnmiXeVj0B4-207">
          <mxGeometry width="50" height="50" relative="1" as="geometry">
            <mxPoint y="1890" as="sourcePoint" />
            <mxPoint x="50" y="1840" as="targetPoint" />
          </mxGeometry>
        </mxCell>
        <mxCell id="k_sBdBxjnJnmiXeVj0B4-215" value="n" style="edgeLabel;html=1;align=center;verticalAlign=middle;resizable=0;points=[];" vertex="1" connectable="0" parent="k_sBdBxjnJnmiXeVj0B4-208">
          <mxGeometry x="0.0634" y="-1" relative="1" as="geometry">
            <mxPoint as="offset" />
          </mxGeometry>
        </mxCell>
        <mxCell id="k_sBdBxjnJnmiXeVj0B4-209" value="" style="endArrow=classic;html=1;rounded=0;entryX=0;entryY=0.5;entryDx=0;entryDy=0;exitX=1;exitY=0.5;exitDx=0;exitDy=0;" edge="1" parent="1" source="k_sBdBxjnJnmiXeVj0B4-207" target="k_sBdBxjnJnmiXeVj0B4-193">
          <mxGeometry width="50" height="50" relative="1" as="geometry">
            <mxPoint x="180" y="1890" as="sourcePoint" />
            <mxPoint x="210" y="1840" as="targetPoint" />
          </mxGeometry>
        </mxCell>
        <mxCell id="k_sBdBxjnJnmiXeVj0B4-216" value="m" style="edgeLabel;html=1;align=center;verticalAlign=middle;resizable=0;points=[];" vertex="1" connectable="0" parent="k_sBdBxjnJnmiXeVj0B4-209">
          <mxGeometry x="0.0237" relative="1" as="geometry">
            <mxPoint as="offset" />
          </mxGeometry>
        </mxCell>
        <mxCell id="k_sBdBxjnJnmiXeVj0B4-210" value="" style="endArrow=none;html=1;rounded=0;entryX=0.404;entryY=0.98;entryDx=0;entryDy=0;entryPerimeter=0;exitX=0.75;exitY=0;exitDx=0;exitDy=0;" edge="1" parent="1" source="k_sBdBxjnJnmiXeVj0B4-193" target="k_sBdBxjnJnmiXeVj0B4-197">
          <mxGeometry width="50" height="50" relative="1" as="geometry">
            <mxPoint x="290" y="1880" as="sourcePoint" />
            <mxPoint x="340" y="1830" as="targetPoint" />
          </mxGeometry>
        </mxCell>
        <mxCell id="k_sBdBxjnJnmiXeVj0B4-211" value="" style="endArrow=none;html=1;rounded=0;entryX=0.031;entryY=0.675;entryDx=0;entryDy=0;entryPerimeter=0;exitX=1;exitY=0.25;exitDx=0;exitDy=0;" edge="1" parent="1" source="k_sBdBxjnJnmiXeVj0B4-193" target="k_sBdBxjnJnmiXeVj0B4-195">
          <mxGeometry width="50" height="50" relative="1" as="geometry">
            <mxPoint x="300" y="1900" as="sourcePoint" />
            <mxPoint x="350" y="1850" as="targetPoint" />
          </mxGeometry>
        </mxCell>
        <mxCell id="k_sBdBxjnJnmiXeVj0B4-212" value="" style="endArrow=none;html=1;rounded=0;entryX=0;entryY=0.5;entryDx=0;entryDy=0;exitX=1;exitY=0.5;exitDx=0;exitDy=0;" edge="1" parent="1" source="k_sBdBxjnJnmiXeVj0B4-193" target="k_sBdBxjnJnmiXeVj0B4-196">
          <mxGeometry width="50" height="50" relative="1" as="geometry">
            <mxPoint x="300" y="1950" as="sourcePoint" />
            <mxPoint x="350" y="1900" as="targetPoint" />
          </mxGeometry>
        </mxCell>
        <mxCell id="k_sBdBxjnJnmiXeVj0B4-213" value="" style="endArrow=none;html=1;rounded=0;entryX=0.037;entryY=0.332;entryDx=0;entryDy=0;entryPerimeter=0;exitX=1;exitY=0.75;exitDx=0;exitDy=0;" edge="1" parent="1" source="k_sBdBxjnJnmiXeVj0B4-193" target="k_sBdBxjnJnmiXeVj0B4-194">
          <mxGeometry width="50" height="50" relative="1" as="geometry">
            <mxPoint x="270" y="1990" as="sourcePoint" />
            <mxPoint x="320" y="1940" as="targetPoint" />
          </mxGeometry>
        </mxCell>
        <mxCell id="k_sBdBxjnJnmiXeVj0B4-214" value="" style="endArrow=none;html=1;rounded=0;entryX=0;entryY=0;entryDx=0;entryDy=0;exitX=0.5;exitY=1;exitDx=0;exitDy=0;" edge="1" parent="1" source="k_sBdBxjnJnmiXeVj0B4-193" target="k_sBdBxjnJnmiXeVj0B4-198">
          <mxGeometry width="50" height="50" relative="1" as="geometry">
            <mxPoint x="240" y="2020" as="sourcePoint" />
            <mxPoint x="290" y="1970" as="targetPoint" />
          </mxGeometry>
        </mxCell>
        <mxCell id="k_sBdBxjnJnmiXeVj0B4-217" value="" style="endArrow=none;html=1;rounded=0;" edge="1" parent="1">
          <mxGeometry width="50" height="50" relative="1" as="geometry">
            <mxPoint x="363.5" y="1960" as="sourcePoint" />
            <mxPoint x="383.5" y="1960" as="targetPoint" />
          </mxGeometry>
        </mxCell>
        <mxCell id="k_sBdBxjnJnmiXeVj0B4-218" value="公示信息" style="rounded=0;whiteSpace=wrap;html=1;" vertex="1" parent="1">
          <mxGeometry x="238.5" y="2111.5" width="67" height="40" as="geometry" />
        </mxCell>
        <mxCell id="k_sBdBxjnJnmiXeVj0B4-219" value="ID" style="ellipse;whiteSpace=wrap;html=1;" vertex="1" parent="1">
          <mxGeometry x="365.5" y="2060" width="60" height="40" as="geometry" />
        </mxCell>
        <mxCell id="k_sBdBxjnJnmiXeVj0B4-220" value="公示内容" style="ellipse;whiteSpace=wrap;html=1;" vertex="1" parent="1">
          <mxGeometry x="365.5" y="2210" width="60" height="40" as="geometry" />
        </mxCell>
        <mxCell id="k_sBdBxjnJnmiXeVj0B4-221" value="负责人" style="ellipse;whiteSpace=wrap;html=1;" vertex="1" parent="1">
          <mxGeometry x="395.5" y="2110" width="60" height="40" as="geometry" />
        </mxCell>
        <mxCell id="k_sBdBxjnJnmiXeVj0B4-222" value="公示时间" style="ellipse;whiteSpace=wrap;html=1;" vertex="1" parent="1">
          <mxGeometry x="395.5" y="2160" width="60" height="40" as="geometry" />
        </mxCell>
        <mxCell id="k_sBdBxjnJnmiXeVj0B4-223" value="" style="endArrow=none;html=1;rounded=0;exitX=1;exitY=0.25;exitDx=0;exitDy=0;" edge="1" parent="1" source="k_sBdBxjnJnmiXeVj0B4-218">
          <mxGeometry width="50" height="50" relative="1" as="geometry">
            <mxPoint x="315.5" y="2128" as="sourcePoint" />
            <mxPoint x="365.5" y="2078" as="targetPoint" />
          </mxGeometry>
        </mxCell>
        <mxCell id="k_sBdBxjnJnmiXeVj0B4-224" value="" style="endArrow=none;html=1;rounded=0;" edge="1" parent="1" source="k_sBdBxjnJnmiXeVj0B4-218">
          <mxGeometry width="50" height="50" relative="1" as="geometry">
            <mxPoint x="315.5" y="2138" as="sourcePoint" />
            <mxPoint x="395.5" y="2128" as="targetPoint" />
          </mxGeometry>
        </mxCell>
        <mxCell id="k_sBdBxjnJnmiXeVj0B4-225" value="" style="endArrow=none;html=1;rounded=0;" edge="1" parent="1" source="k_sBdBxjnJnmiXeVj0B4-218">
          <mxGeometry width="50" height="50" relative="1" as="geometry">
            <mxPoint x="315.5" y="2148" as="sourcePoint" />
            <mxPoint x="395.5" y="2178" as="targetPoint" />
          </mxGeometry>
        </mxCell>
        <mxCell id="k_sBdBxjnJnmiXeVj0B4-226" value="" style="endArrow=none;html=1;rounded=0;exitX=0.871;exitY=1.021;exitDx=0;exitDy=0;exitPerimeter=0;" edge="1" parent="1" source="k_sBdBxjnJnmiXeVj0B4-218">
          <mxGeometry width="50" height="50" relative="1" as="geometry">
            <mxPoint x="315.5" y="2278" as="sourcePoint" />
            <mxPoint x="365.5" y="2228" as="targetPoint" />
          </mxGeometry>
        </mxCell>
        <mxCell id="k_sBdBxjnJnmiXeVj0B4-227" value="" style="endArrow=none;html=1;rounded=0;" edge="1" parent="1">
          <mxGeometry width="50" height="50" relative="1" as="geometry">
            <mxPoint x="385.5" y="2090" as="sourcePoint" />
            <mxPoint x="405.5" y="2090" as="targetPoint" />
          </mxGeometry>
        </mxCell>
        <mxCell id="k_sBdBxjnJnmiXeVj0B4-228" value="环境管理人员" style="rounded=0;whiteSpace=wrap;html=1;" vertex="1" parent="1">
          <mxGeometry x="-68" y="2107.5" width="64.5" height="40" as="geometry" />
        </mxCell>
        <mxCell id="k_sBdBxjnJnmiXeVj0B4-229" value="工号" style="ellipse;whiteSpace=wrap;html=1;" vertex="1" parent="1">
          <mxGeometry x="-139" y="2053" width="60" height="38" as="geometry" />
        </mxCell>
        <mxCell id="k_sBdBxjnJnmiXeVj0B4-230" value="管理区域" style="ellipse;whiteSpace=wrap;html=1;" vertex="1" parent="1">
          <mxGeometry x="-189" y="2108" width="60" height="41" as="geometry" />
        </mxCell>
        <mxCell id="k_sBdBxjnJnmiXeVj0B4-231" value="负责内容" style="ellipse;whiteSpace=wrap;html=1;" vertex="1" parent="1">
          <mxGeometry x="-143" y="2166" width="60" height="41" as="geometry" />
        </mxCell>
        <mxCell id="k_sBdBxjnJnmiXeVj0B4-232" value="" style="endArrow=none;html=1;rounded=0;entryX=0;entryY=0.5;entryDx=0;entryDy=0;" edge="1" parent="1" target="k_sBdBxjnJnmiXeVj0B4-228">
          <mxGeometry width="50" height="50" relative="1" as="geometry">
            <mxPoint x="-130" y="2129" as="sourcePoint" />
            <mxPoint x="-80" y="2076" as="targetPoint" />
          </mxGeometry>
        </mxCell>
        <mxCell id="k_sBdBxjnJnmiXeVj0B4-233" value="" style="endArrow=none;html=1;rounded=0;entryX=0.25;entryY=0;entryDx=0;entryDy=0;" edge="1" parent="1" source="k_sBdBxjnJnmiXeVj0B4-229" target="k_sBdBxjnJnmiXeVj0B4-228">
          <mxGeometry width="50" height="50" relative="1" as="geometry">
            <mxPoint x="-79" y="2122" as="sourcePoint" />
            <mxPoint x="-60" y="2106" as="targetPoint" />
          </mxGeometry>
        </mxCell>
        <mxCell id="k_sBdBxjnJnmiXeVj0B4-234" value="" style="endArrow=none;html=1;rounded=0;entryX=0.25;entryY=1;entryDx=0;entryDy=0;" edge="1" parent="1" target="k_sBdBxjnJnmiXeVj0B4-228">
          <mxGeometry width="50" height="50" relative="1" as="geometry">
            <mxPoint x="-90" y="2176" as="sourcePoint" />
            <mxPoint x="-40" y="2126" as="targetPoint" />
          </mxGeometry>
        </mxCell>
        <mxCell id="k_sBdBxjnJnmiXeVj0B4-236" value="发布和管理" style="rhombus;whiteSpace=wrap;html=1;" vertex="1" parent="1">
          <mxGeometry x="76" y="2105" width="80" height="45" as="geometry" />
        </mxCell>
        <mxCell id="k_sBdBxjnJnmiXeVj0B4-237" value="" style="endArrow=none;html=1;rounded=0;exitX=1;exitY=0.5;exitDx=0;exitDy=0;entryX=0;entryY=0.5;entryDx=0;entryDy=0;" edge="1" parent="1" source="k_sBdBxjnJnmiXeVj0B4-228" target="k_sBdBxjnJnmiXeVj0B4-236">
          <mxGeometry width="50" height="50" relative="1" as="geometry">
            <mxPoint x="27" y="2180" as="sourcePoint" />
            <mxPoint x="77" y="2130" as="targetPoint" />
          </mxGeometry>
        </mxCell>
        <mxCell id="k_sBdBxjnJnmiXeVj0B4-263" value="1" style="edgeLabel;html=1;align=center;verticalAlign=middle;resizable=0;points=[];" vertex="1" connectable="0" parent="k_sBdBxjnJnmiXeVj0B4-237">
          <mxGeometry x="0.0596" y="1" relative="1" as="geometry">
            <mxPoint as="offset" />
          </mxGeometry>
        </mxCell>
        <mxCell id="k_sBdBxjnJnmiXeVj0B4-238" value="" style="endArrow=classic;html=1;rounded=0;exitX=1;exitY=0.5;exitDx=0;exitDy=0;entryX=0.005;entryY=0.374;entryDx=0;entryDy=0;entryPerimeter=0;" edge="1" parent="1" source="k_sBdBxjnJnmiXeVj0B4-236" target="k_sBdBxjnJnmiXeVj0B4-218">
          <mxGeometry width="50" height="50" relative="1" as="geometry">
            <mxPoint x="170" y="2130" as="sourcePoint" />
            <mxPoint x="220" y="2080" as="targetPoint" />
          </mxGeometry>
        </mxCell>
        <mxCell id="k_sBdBxjnJnmiXeVj0B4-264" value="n" style="edgeLabel;html=1;align=center;verticalAlign=middle;resizable=0;points=[];" vertex="1" connectable="0" parent="k_sBdBxjnJnmiXeVj0B4-238">
          <mxGeometry x="-0.1038" y="1" relative="1" as="geometry">
            <mxPoint as="offset" />
          </mxGeometry>
        </mxCell>
        <mxCell id="k_sBdBxjnJnmiXeVj0B4-239" value="海域" style="rounded=0;whiteSpace=wrap;html=1;" vertex="1" parent="1">
          <mxGeometry x="247.75" y="2407.5" width="60" height="40" as="geometry" />
        </mxCell>
        <mxCell id="k_sBdBxjnJnmiXeVj0B4-240" value="ID" style="ellipse;whiteSpace=wrap;html=1;" vertex="1" parent="1">
          <mxGeometry x="345.75" y="2465" width="60" height="40" as="geometry" />
        </mxCell>
        <mxCell id="k_sBdBxjnJnmiXeVj0B4-241" value="位置" style="ellipse;whiteSpace=wrap;html=1;" vertex="1" parent="1">
          <mxGeometry x="347.5" y="2352" width="60" height="40" as="geometry" />
        </mxCell>
        <mxCell id="k_sBdBxjnJnmiXeVj0B4-242" value="所属" style="ellipse;whiteSpace=wrap;html=1;" vertex="1" parent="1">
          <mxGeometry x="370.75" y="2408" width="60" height="40" as="geometry" />
        </mxCell>
        <mxCell id="k_sBdBxjnJnmiXeVj0B4-243" value="范围" style="ellipse;whiteSpace=wrap;html=1;" vertex="1" parent="1">
          <mxGeometry x="289.25" y="2320" width="60" height="40" as="geometry" />
        </mxCell>
        <mxCell id="k_sBdBxjnJnmiXeVj0B4-244" value="当前辐射程度" style="ellipse;whiteSpace=wrap;html=1;" vertex="1" parent="1">
          <mxGeometry x="290.25" y="2495" width="59" height="40" as="geometry" />
        </mxCell>
        <mxCell id="k_sBdBxjnJnmiXeVj0B4-245" value="获取和分析" style="rhombus;whiteSpace=wrap;html=1;" vertex="1" parent="1">
          <mxGeometry x="79.25" y="2405" width="80" height="45" as="geometry" />
        </mxCell>
        <mxCell id="k_sBdBxjnJnmiXeVj0B4-246" value="" style="endArrow=classic;html=1;rounded=0;entryX=0;entryY=0.5;entryDx=0;entryDy=0;exitX=1;exitY=0.5;exitDx=0;exitDy=0;" edge="1" parent="1" source="k_sBdBxjnJnmiXeVj0B4-245" target="k_sBdBxjnJnmiXeVj0B4-239">
          <mxGeometry width="50" height="50" relative="1" as="geometry">
            <mxPoint x="182.25" y="2425" as="sourcePoint" />
            <mxPoint x="212.25" y="2375" as="targetPoint" />
          </mxGeometry>
        </mxCell>
        <mxCell id="k_sBdBxjnJnmiXeVj0B4-247" value="m" style="edgeLabel;html=1;align=center;verticalAlign=middle;resizable=0;points=[];" vertex="1" connectable="0" parent="k_sBdBxjnJnmiXeVj0B4-246">
          <mxGeometry x="0.0237" relative="1" as="geometry">
            <mxPoint as="offset" />
          </mxGeometry>
        </mxCell>
        <mxCell id="k_sBdBxjnJnmiXeVj0B4-248" value="" style="endArrow=none;html=1;rounded=0;entryX=0.404;entryY=0.98;entryDx=0;entryDy=0;entryPerimeter=0;exitX=0.75;exitY=0;exitDx=0;exitDy=0;" edge="1" parent="1" source="k_sBdBxjnJnmiXeVj0B4-239" target="k_sBdBxjnJnmiXeVj0B4-243">
          <mxGeometry width="50" height="50" relative="1" as="geometry">
            <mxPoint x="292.25" y="2415" as="sourcePoint" />
            <mxPoint x="342.25" y="2365" as="targetPoint" />
          </mxGeometry>
        </mxCell>
        <mxCell id="k_sBdBxjnJnmiXeVj0B4-249" value="" style="endArrow=none;html=1;rounded=0;entryX=0.031;entryY=0.675;entryDx=0;entryDy=0;entryPerimeter=0;exitX=1;exitY=0.25;exitDx=0;exitDy=0;" edge="1" parent="1" source="k_sBdBxjnJnmiXeVj0B4-239" target="k_sBdBxjnJnmiXeVj0B4-241">
          <mxGeometry width="50" height="50" relative="1" as="geometry">
            <mxPoint x="302.25" y="2435" as="sourcePoint" />
            <mxPoint x="352.25" y="2385" as="targetPoint" />
          </mxGeometry>
        </mxCell>
        <mxCell id="k_sBdBxjnJnmiXeVj0B4-250" value="" style="endArrow=none;html=1;rounded=0;entryX=0;entryY=0.5;entryDx=0;entryDy=0;exitX=1;exitY=0.5;exitDx=0;exitDy=0;" edge="1" parent="1" source="k_sBdBxjnJnmiXeVj0B4-239" target="k_sBdBxjnJnmiXeVj0B4-242">
          <mxGeometry width="50" height="50" relative="1" as="geometry">
            <mxPoint x="302.25" y="2485" as="sourcePoint" />
            <mxPoint x="352.25" y="2435" as="targetPoint" />
          </mxGeometry>
        </mxCell>
        <mxCell id="k_sBdBxjnJnmiXeVj0B4-251" value="" style="endArrow=none;html=1;rounded=0;entryX=0.037;entryY=0.332;entryDx=0;entryDy=0;entryPerimeter=0;exitX=1;exitY=0.75;exitDx=0;exitDy=0;" edge="1" parent="1" source="k_sBdBxjnJnmiXeVj0B4-239" target="k_sBdBxjnJnmiXeVj0B4-240">
          <mxGeometry width="50" height="50" relative="1" as="geometry">
            <mxPoint x="272.25" y="2525" as="sourcePoint" />
            <mxPoint x="322.25" y="2475" as="targetPoint" />
          </mxGeometry>
        </mxCell>
        <mxCell id="k_sBdBxjnJnmiXeVj0B4-252" value="" style="endArrow=none;html=1;rounded=0;entryX=0;entryY=0;entryDx=0;entryDy=0;exitX=0.5;exitY=1;exitDx=0;exitDy=0;" edge="1" parent="1" source="k_sBdBxjnJnmiXeVj0B4-239" target="k_sBdBxjnJnmiXeVj0B4-244">
          <mxGeometry width="50" height="50" relative="1" as="geometry">
            <mxPoint x="242.25" y="2555" as="sourcePoint" />
            <mxPoint x="292.25" y="2505" as="targetPoint" />
          </mxGeometry>
        </mxCell>
        <mxCell id="k_sBdBxjnJnmiXeVj0B4-253" value="" style="endArrow=none;html=1;rounded=0;" edge="1" parent="1">
          <mxGeometry width="50" height="50" relative="1" as="geometry">
            <mxPoint x="365.75" y="2495" as="sourcePoint" />
            <mxPoint x="385.75" y="2495" as="targetPoint" />
          </mxGeometry>
        </mxCell>
        <mxCell id="k_sBdBxjnJnmiXeVj0B4-254" value="渔业管理人员" style="rounded=0;whiteSpace=wrap;html=1;" vertex="1" parent="1">
          <mxGeometry x="-73.5" y="2408" width="70" height="40" as="geometry" />
        </mxCell>
        <mxCell id="k_sBdBxjnJnmiXeVj0B4-255" value="工号" style="ellipse;whiteSpace=wrap;html=1;" vertex="1" parent="1">
          <mxGeometry x="-171" y="2390" width="61" height="40" as="geometry" />
        </mxCell>
        <mxCell id="k_sBdBxjnJnmiXeVj0B4-256" value="管理区域" style="ellipse;whiteSpace=wrap;html=1;" vertex="1" parent="1">
          <mxGeometry x="-116.5" y="2340" width="60" height="40" as="geometry" />
        </mxCell>
        <mxCell id="k_sBdBxjnJnmiXeVj0B4-257" value="负责内容" style="ellipse;whiteSpace=wrap;html=1;" vertex="1" parent="1">
          <mxGeometry x="-116.5" y="2480" width="60" height="40" as="geometry" />
        </mxCell>
        <mxCell id="k_sBdBxjnJnmiXeVj0B4-258" value="管理人员" style="ellipse;whiteSpace=wrap;html=1;" vertex="1" parent="1">
          <mxGeometry x="-170" y="2440" width="61" height="40" as="geometry" />
        </mxCell>
        <mxCell id="k_sBdBxjnJnmiXeVj0B4-259" value="" style="endArrow=none;html=1;rounded=0;entryX=0.5;entryY=0;entryDx=0;entryDy=0;" edge="1" parent="1" target="k_sBdBxjnJnmiXeVj0B4-254">
          <mxGeometry width="50" height="50" relative="1" as="geometry">
            <mxPoint x="-80" y="2380" as="sourcePoint" />
            <mxPoint x="-10" y="2320" as="targetPoint" />
          </mxGeometry>
        </mxCell>
        <mxCell id="k_sBdBxjnJnmiXeVj0B4-260" value="" style="endArrow=none;html=1;rounded=0;exitX=1;exitY=0.5;exitDx=0;exitDy=0;entryX=0;entryY=0.25;entryDx=0;entryDy=0;" edge="1" parent="1" source="k_sBdBxjnJnmiXeVj0B4-255" target="k_sBdBxjnJnmiXeVj0B4-254">
          <mxGeometry width="50" height="50" relative="1" as="geometry">
            <mxPoint x="-110" y="2420" as="sourcePoint" />
            <mxPoint x="-60" y="2370" as="targetPoint" />
          </mxGeometry>
        </mxCell>
        <mxCell id="k_sBdBxjnJnmiXeVj0B4-261" value="" style="endArrow=none;html=1;rounded=0;exitX=1;exitY=0.5;exitDx=0;exitDy=0;entryX=0;entryY=0.75;entryDx=0;entryDy=0;" edge="1" parent="1" source="k_sBdBxjnJnmiXeVj0B4-258" target="k_sBdBxjnJnmiXeVj0B4-254">
          <mxGeometry width="50" height="50" relative="1" as="geometry">
            <mxPoint x="-40" y="2480" as="sourcePoint" />
            <mxPoint x="10" y="2430" as="targetPoint" />
          </mxGeometry>
        </mxCell>
        <mxCell id="k_sBdBxjnJnmiXeVj0B4-262" value="" style="endArrow=none;html=1;rounded=0;exitX=0.769;exitY=0.123;exitDx=0;exitDy=0;entryX=0.5;entryY=1;entryDx=0;entryDy=0;exitPerimeter=0;" edge="1" parent="1" source="k_sBdBxjnJnmiXeVj0B4-257" target="k_sBdBxjnJnmiXeVj0B4-254">
          <mxGeometry width="50" height="50" relative="1" as="geometry">
            <mxPoint x="-50" y="2510" as="sourcePoint" />
            <mxPoint y="2460" as="targetPoint" />
          </mxGeometry>
        </mxCell>
        <mxCell id="k_sBdBxjnJnmiXeVj0B4-265" value="" style="endArrow=none;html=1;rounded=0;entryX=0;entryY=0.5;entryDx=0;entryDy=0;exitX=1;exitY=0.5;exitDx=0;exitDy=0;" edge="1" parent="1" source="k_sBdBxjnJnmiXeVj0B4-254" target="k_sBdBxjnJnmiXeVj0B4-245">
          <mxGeometry width="50" height="50" relative="1" as="geometry">
            <mxPoint x="-4" y="2428" as="sourcePoint" />
            <mxPoint x="46" y="2378" as="targetPoint" />
          </mxGeometry>
        </mxCell>
        <mxCell id="k_sBdBxjnJnmiXeVj0B4-266" value="n" style="edgeLabel;html=1;align=center;verticalAlign=middle;resizable=0;points=[];" vertex="1" connectable="0" parent="k_sBdBxjnJnmiXeVj0B4-265">
          <mxGeometry x="0.2848" relative="1" as="geometry">
            <mxPoint as="offset" />
          </mxGeometry>
        </mxCell>
        <mxCell id="k_sBdBxjnJnmiXeVj0B4-267" value="可进行渔业活动" style="rounded=0;whiteSpace=wrap;html=1;" vertex="1" parent="1">
          <mxGeometry x="236" y="2784.5" width="67" height="40" as="geometry" />
        </mxCell>
        <mxCell id="k_sBdBxjnJnmiXeVj0B4-268" value="活动" style="ellipse;whiteSpace=wrap;html=1;" vertex="1" parent="1">
          <mxGeometry x="330" y="2854.5" width="60" height="40" as="geometry" />
        </mxCell>
        <mxCell id="k_sBdBxjnJnmiXeVj0B4-269" value="时间段" style="ellipse;whiteSpace=wrap;html=1;" vertex="1" parent="1">
          <mxGeometry x="358" y="2784.5" width="62" height="40" as="geometry" />
        </mxCell>
        <mxCell id="k_sBdBxjnJnmiXeVj0B4-270" value="海域" style="ellipse;whiteSpace=wrap;html=1;" vertex="1" parent="1">
          <mxGeometry x="325" y="2713.5" width="70" height="40" as="geometry" />
        </mxCell>
        <mxCell id="k_sBdBxjnJnmiXeVj0B4-271" value="" style="endArrow=none;html=1;rounded=0;entryX=0;entryY=1;entryDx=0;entryDy=0;exitX=0.75;exitY=0;exitDx=0;exitDy=0;" edge="1" parent="1" source="k_sBdBxjnJnmiXeVj0B4-267" target="k_sBdBxjnJnmiXeVj0B4-270">
          <mxGeometry width="50" height="50" relative="1" as="geometry">
            <mxPoint x="293.5" y="2782.5" as="sourcePoint" />
            <mxPoint x="323.5" y="2752.5" as="targetPoint" />
          </mxGeometry>
        </mxCell>
        <mxCell id="k_sBdBxjnJnmiXeVj0B4-272" value="" style="endArrow=none;html=1;rounded=0;entryX=0;entryY=0.5;entryDx=0;entryDy=0;exitX=1;exitY=0.5;exitDx=0;exitDy=0;" edge="1" parent="1" source="k_sBdBxjnJnmiXeVj0B4-267" target="k_sBdBxjnJnmiXeVj0B4-269">
          <mxGeometry width="50" height="50" relative="1" as="geometry">
            <mxPoint x="306" y="2804.5" as="sourcePoint" />
            <mxPoint x="355.5" y="2753.5" as="targetPoint" />
          </mxGeometry>
        </mxCell>
        <mxCell id="k_sBdBxjnJnmiXeVj0B4-273" value="" style="endArrow=none;html=1;rounded=0;exitX=0.043;exitY=0.295;exitDx=0;exitDy=0;exitPerimeter=0;" edge="1" parent="1" source="k_sBdBxjnJnmiXeVj0B4-268">
          <mxGeometry width="50" height="50" relative="1" as="geometry">
            <mxPoint x="243.5" y="2872.5" as="sourcePoint" />
            <mxPoint x="296" y="2824.5" as="targetPoint" />
          </mxGeometry>
        </mxCell>
        <mxCell id="k_sBdBxjnJnmiXeVj0B4-274" value="" style="endArrow=none;html=1;rounded=0;exitX=1;exitY=0.5;exitDx=0;exitDy=0;" edge="1" parent="1">
          <mxGeometry width="50" height="50" relative="1" as="geometry">
            <mxPoint x="172" y="2804.5" as="sourcePoint" />
            <mxPoint x="236" y="2804.5" as="targetPoint" />
          </mxGeometry>
        </mxCell>
        <mxCell id="k_sBdBxjnJnmiXeVj0B4-275" value="m" style="edgeLabel;html=1;align=center;verticalAlign=middle;resizable=0;points=[];" vertex="1" connectable="0" parent="k_sBdBxjnJnmiXeVj0B4-274">
          <mxGeometry x="-0.0041" y="1" relative="1" as="geometry">
            <mxPoint as="offset" />
          </mxGeometry>
        </mxCell>
        <mxCell id="k_sBdBxjnJnmiXeVj0B4-276" value="渔业管理人员" style="rounded=0;whiteSpace=wrap;html=1;" vertex="1" parent="1">
          <mxGeometry x="-60.5" y="2784" width="70" height="40" as="geometry" />
        </mxCell>
        <mxCell id="k_sBdBxjnJnmiXeVj0B4-277" value="工号" style="ellipse;whiteSpace=wrap;html=1;" vertex="1" parent="1">
          <mxGeometry x="-158" y="2766" width="61" height="40" as="geometry" />
        </mxCell>
        <mxCell id="k_sBdBxjnJnmiXeVj0B4-278" value="管理区域" style="ellipse;whiteSpace=wrap;html=1;" vertex="1" parent="1">
          <mxGeometry x="-103.5" y="2716" width="60" height="40" as="geometry" />
        </mxCell>
        <mxCell id="k_sBdBxjnJnmiXeVj0B4-279" value="负责内容" style="ellipse;whiteSpace=wrap;html=1;" vertex="1" parent="1">
          <mxGeometry x="-103.5" y="2856" width="60" height="40" as="geometry" />
        </mxCell>
        <mxCell id="k_sBdBxjnJnmiXeVj0B4-280" value="管理人员" style="ellipse;whiteSpace=wrap;html=1;" vertex="1" parent="1">
          <mxGeometry x="-157" y="2816" width="61" height="40" as="geometry" />
        </mxCell>
        <mxCell id="k_sBdBxjnJnmiXeVj0B4-281" value="" style="endArrow=none;html=1;rounded=0;entryX=0.5;entryY=0;entryDx=0;entryDy=0;" edge="1" parent="1" target="k_sBdBxjnJnmiXeVj0B4-276">
          <mxGeometry width="50" height="50" relative="1" as="geometry">
            <mxPoint x="-67" y="2756" as="sourcePoint" />
            <mxPoint x="3" y="2696" as="targetPoint" />
          </mxGeometry>
        </mxCell>
        <mxCell id="k_sBdBxjnJnmiXeVj0B4-282" value="" style="endArrow=none;html=1;rounded=0;exitX=1;exitY=0.5;exitDx=0;exitDy=0;entryX=0;entryY=0.25;entryDx=0;entryDy=0;" edge="1" parent="1" source="k_sBdBxjnJnmiXeVj0B4-277" target="k_sBdBxjnJnmiXeVj0B4-276">
          <mxGeometry width="50" height="50" relative="1" as="geometry">
            <mxPoint x="-97" y="2796" as="sourcePoint" />
            <mxPoint x="-47" y="2746" as="targetPoint" />
          </mxGeometry>
        </mxCell>
        <mxCell id="k_sBdBxjnJnmiXeVj0B4-283" value="" style="endArrow=none;html=1;rounded=0;exitX=1;exitY=0.5;exitDx=0;exitDy=0;entryX=0;entryY=0.75;entryDx=0;entryDy=0;" edge="1" parent="1" source="k_sBdBxjnJnmiXeVj0B4-280" target="k_sBdBxjnJnmiXeVj0B4-276">
          <mxGeometry width="50" height="50" relative="1" as="geometry">
            <mxPoint x="-27" y="2856" as="sourcePoint" />
            <mxPoint x="23" y="2806" as="targetPoint" />
          </mxGeometry>
        </mxCell>
        <mxCell id="k_sBdBxjnJnmiXeVj0B4-284" value="" style="endArrow=none;html=1;rounded=0;exitX=0.769;exitY=0.123;exitDx=0;exitDy=0;entryX=0.5;entryY=1;entryDx=0;entryDy=0;exitPerimeter=0;" edge="1" parent="1" source="k_sBdBxjnJnmiXeVj0B4-279" target="k_sBdBxjnJnmiXeVj0B4-276">
          <mxGeometry width="50" height="50" relative="1" as="geometry">
            <mxPoint x="-37" y="2886" as="sourcePoint" />
            <mxPoint x="13" y="2836" as="targetPoint" />
          </mxGeometry>
        </mxCell>
        <mxCell id="k_sBdBxjnJnmiXeVj0B4-285" value="" style="endArrow=none;html=1;rounded=0;entryX=0;entryY=0.5;entryDx=0;entryDy=0;exitX=1;exitY=0.5;exitDx=0;exitDy=0;" edge="1" parent="1" source="k_sBdBxjnJnmiXeVj0B4-276">
          <mxGeometry width="50" height="50" relative="1" as="geometry">
            <mxPoint x="9" y="2804" as="sourcePoint" />
            <mxPoint x="92" y="2804" as="targetPoint" />
          </mxGeometry>
        </mxCell>
        <mxCell id="k_sBdBxjnJnmiXeVj0B4-286" value="1" style="edgeLabel;html=1;align=center;verticalAlign=middle;resizable=0;points=[];" vertex="1" connectable="0" parent="k_sBdBxjnJnmiXeVj0B4-285">
          <mxGeometry x="0.2848" relative="1" as="geometry">
            <mxPoint as="offset" />
          </mxGeometry>
        </mxCell>
        <mxCell id="k_sBdBxjnJnmiXeVj0B4-287" value="发布" style="rhombus;whiteSpace=wrap;html=1;" vertex="1" parent="1">
          <mxGeometry x="92" y="2781.5" width="80" height="45" as="geometry" />
        </mxCell>
        <mxCell id="k_sBdBxjnJnmiXeVj0B4-289" value="渔业管理人员" style="rounded=0;whiteSpace=wrap;html=1;" vertex="1" parent="1">
          <mxGeometry x="-89" y="3073" width="70" height="40" as="geometry" />
        </mxCell>
        <mxCell id="k_sBdBxjnJnmiXeVj0B4-290" value="工号" style="ellipse;whiteSpace=wrap;html=1;" vertex="1" parent="1">
          <mxGeometry x="-186.5" y="3055" width="61" height="40" as="geometry" />
        </mxCell>
        <mxCell id="k_sBdBxjnJnmiXeVj0B4-291" value="管理区域" style="ellipse;whiteSpace=wrap;html=1;" vertex="1" parent="1">
          <mxGeometry x="-132" y="3005" width="60" height="40" as="geometry" />
        </mxCell>
        <mxCell id="k_sBdBxjnJnmiXeVj0B4-292" value="负责内容" style="ellipse;whiteSpace=wrap;html=1;" vertex="1" parent="1">
          <mxGeometry x="-132" y="3145" width="60" height="40" as="geometry" />
        </mxCell>
        <mxCell id="k_sBdBxjnJnmiXeVj0B4-293" value="管理人员" style="ellipse;whiteSpace=wrap;html=1;" vertex="1" parent="1">
          <mxGeometry x="-185.5" y="3105" width="61" height="40" as="geometry" />
        </mxCell>
        <mxCell id="k_sBdBxjnJnmiXeVj0B4-294" value="" style="endArrow=none;html=1;rounded=0;entryX=0.5;entryY=0;entryDx=0;entryDy=0;" edge="1" parent="1" target="k_sBdBxjnJnmiXeVj0B4-289">
          <mxGeometry width="50" height="50" relative="1" as="geometry">
            <mxPoint x="-95.5" y="3045" as="sourcePoint" />
            <mxPoint x="-25.5" y="2985" as="targetPoint" />
          </mxGeometry>
        </mxCell>
        <mxCell id="k_sBdBxjnJnmiXeVj0B4-295" value="" style="endArrow=none;html=1;rounded=0;exitX=1;exitY=0.5;exitDx=0;exitDy=0;entryX=0;entryY=0.25;entryDx=0;entryDy=0;" edge="1" parent="1" source="k_sBdBxjnJnmiXeVj0B4-290" target="k_sBdBxjnJnmiXeVj0B4-289">
          <mxGeometry width="50" height="50" relative="1" as="geometry">
            <mxPoint x="-125.5" y="3085" as="sourcePoint" />
            <mxPoint x="-75.5" y="3035" as="targetPoint" />
          </mxGeometry>
        </mxCell>
        <mxCell id="k_sBdBxjnJnmiXeVj0B4-296" value="" style="endArrow=none;html=1;rounded=0;exitX=1;exitY=0.5;exitDx=0;exitDy=0;entryX=0;entryY=0.75;entryDx=0;entryDy=0;" edge="1" parent="1" source="k_sBdBxjnJnmiXeVj0B4-293" target="k_sBdBxjnJnmiXeVj0B4-289">
          <mxGeometry width="50" height="50" relative="1" as="geometry">
            <mxPoint x="-55.5" y="3145" as="sourcePoint" />
            <mxPoint x="-5.5" y="3095" as="targetPoint" />
          </mxGeometry>
        </mxCell>
        <mxCell id="k_sBdBxjnJnmiXeVj0B4-297" value="" style="endArrow=none;html=1;rounded=0;exitX=0.769;exitY=0.123;exitDx=0;exitDy=0;entryX=0.5;entryY=1;entryDx=0;entryDy=0;exitPerimeter=0;" edge="1" parent="1" source="k_sBdBxjnJnmiXeVj0B4-292" target="k_sBdBxjnJnmiXeVj0B4-289">
          <mxGeometry width="50" height="50" relative="1" as="geometry">
            <mxPoint x="-65.5" y="3175" as="sourcePoint" />
            <mxPoint x="-15.5" y="3125" as="targetPoint" />
          </mxGeometry>
        </mxCell>
        <mxCell id="k_sBdBxjnJnmiXeVj0B4-298" value="" style="endArrow=none;html=1;rounded=0;entryX=0;entryY=0.5;entryDx=0;entryDy=0;exitX=1;exitY=0.5;exitDx=0;exitDy=0;" edge="1" parent="1" source="k_sBdBxjnJnmiXeVj0B4-289">
          <mxGeometry width="50" height="50" relative="1" as="geometry">
            <mxPoint x="-19.5" y="3093" as="sourcePoint" />
            <mxPoint x="63.5" y="3093" as="targetPoint" />
          </mxGeometry>
        </mxCell>
        <mxCell id="k_sBdBxjnJnmiXeVj0B4-299" value="1" style="edgeLabel;html=1;align=center;verticalAlign=middle;resizable=0;points=[];" vertex="1" connectable="0" parent="k_sBdBxjnJnmiXeVj0B4-298">
          <mxGeometry x="0.2848" relative="1" as="geometry">
            <mxPoint as="offset" />
          </mxGeometry>
        </mxCell>
        <mxCell id="k_sBdBxjnJnmiXeVj0B4-300" value="渔业从业者" style="rounded=0;whiteSpace=wrap;html=1;" vertex="1" parent="1">
          <mxGeometry x="218" y="3073" width="65" height="40" as="geometry" />
        </mxCell>
        <mxCell id="k_sBdBxjnJnmiXeVj0B4-301" value="身份证号" style="ellipse;whiteSpace=wrap;html=1;" vertex="1" parent="1">
          <mxGeometry x="356" y="3020" width="59" height="40" as="geometry" />
        </mxCell>
        <mxCell id="k_sBdBxjnJnmiXeVj0B4-302" value="违规状态" style="ellipse;whiteSpace=wrap;html=1;" vertex="1" parent="1">
          <mxGeometry x="347" y="3142" width="61" height="38" as="geometry" />
        </mxCell>
        <mxCell id="k_sBdBxjnJnmiXeVj0B4-303" value="真实姓名" style="ellipse;whiteSpace=wrap;html=1;" vertex="1" parent="1">
          <mxGeometry x="283" y="2982" width="62" height="38" as="geometry" />
        </mxCell>
        <mxCell id="k_sBdBxjnJnmiXeVj0B4-304" value="居住地" style="ellipse;whiteSpace=wrap;html=1;" vertex="1" parent="1">
          <mxGeometry x="373" y="3082" width="57" height="34" as="geometry" />
        </mxCell>
        <mxCell id="k_sBdBxjnJnmiXeVj0B4-305" value="从事工作" style="ellipse;whiteSpace=wrap;html=1;" vertex="1" parent="1">
          <mxGeometry x="273" y="3162" width="64" height="42" as="geometry" />
        </mxCell>
        <mxCell id="k_sBdBxjnJnmiXeVj0B4-306" value="" style="endArrow=classic;html=1;rounded=0;entryX=0;entryY=0.5;entryDx=0;entryDy=0;" edge="1" parent="1" target="k_sBdBxjnJnmiXeVj0B4-300">
          <mxGeometry width="50" height="50" relative="1" as="geometry">
            <mxPoint x="144" y="3093" as="sourcePoint" />
            <mxPoint x="194" y="3043" as="targetPoint" />
          </mxGeometry>
        </mxCell>
        <mxCell id="k_sBdBxjnJnmiXeVj0B4-307" value="m" style="edgeLabel;html=1;align=center;verticalAlign=middle;resizable=0;points=[];" vertex="1" connectable="0" parent="k_sBdBxjnJnmiXeVj0B4-306">
          <mxGeometry x="-0.119" relative="1" as="geometry">
            <mxPoint as="offset" />
          </mxGeometry>
        </mxCell>
        <mxCell id="k_sBdBxjnJnmiXeVj0B4-308" value="" style="endArrow=none;html=1;rounded=0;exitX=0.5;exitY=0;exitDx=0;exitDy=0;entryX=0;entryY=1;entryDx=0;entryDy=0;" edge="1" parent="1" source="k_sBdBxjnJnmiXeVj0B4-300" target="k_sBdBxjnJnmiXeVj0B4-303">
          <mxGeometry width="50" height="50" relative="1" as="geometry">
            <mxPoint x="235.5" y="3058" as="sourcePoint" />
            <mxPoint x="285.5" y="3008" as="targetPoint" />
          </mxGeometry>
        </mxCell>
        <mxCell id="k_sBdBxjnJnmiXeVj0B4-309" value="" style="endArrow=none;html=1;rounded=0;" edge="1" parent="1">
          <mxGeometry width="50" height="50" relative="1" as="geometry">
            <mxPoint x="282.5" y="3082" as="sourcePoint" />
            <mxPoint x="355.5" y="3038" as="targetPoint" />
          </mxGeometry>
        </mxCell>
        <mxCell id="k_sBdBxjnJnmiXeVj0B4-310" value="" style="endArrow=none;html=1;rounded=0;entryX=0;entryY=0.5;entryDx=0;entryDy=0;" edge="1" parent="1" target="k_sBdBxjnJnmiXeVj0B4-304">
          <mxGeometry width="50" height="50" relative="1" as="geometry">
            <mxPoint x="283" y="3098" as="sourcePoint" />
            <mxPoint x="333" y="3048" as="targetPoint" />
          </mxGeometry>
        </mxCell>
        <mxCell id="k_sBdBxjnJnmiXeVj0B4-311" value="" style="endArrow=none;html=1;rounded=0;entryX=0.01;entryY=0.384;entryDx=0;entryDy=0;entryPerimeter=0;" edge="1" parent="1" target="k_sBdBxjnJnmiXeVj0B4-302">
          <mxGeometry width="50" height="50" relative="1" as="geometry">
            <mxPoint x="282.5" y="3108" as="sourcePoint" />
            <mxPoint x="332.5" y="3058" as="targetPoint" />
          </mxGeometry>
        </mxCell>
        <mxCell id="k_sBdBxjnJnmiXeVj0B4-312" value="" style="endArrow=none;html=1;rounded=0;exitX=0.392;exitY=0.008;exitDx=0;exitDy=0;exitPerimeter=0;" edge="1" parent="1" source="k_sBdBxjnJnmiXeVj0B4-305">
          <mxGeometry width="50" height="50" relative="1" as="geometry">
            <mxPoint x="223" y="3163" as="sourcePoint" />
            <mxPoint x="273" y="3113" as="targetPoint" />
          </mxGeometry>
        </mxCell>
        <mxCell id="k_sBdBxjnJnmiXeVj0B4-313" value="管理" style="rhombus;whiteSpace=wrap;html=1;" vertex="1" parent="1">
          <mxGeometry x="64" y="3070.5" width="80" height="45" as="geometry" />
        </mxCell>
        <mxCell id="k_sBdBxjnJnmiXeVj0B4-315" value="渔业管理人员" style="rounded=0;whiteSpace=wrap;html=1;" vertex="1" parent="1">
          <mxGeometry x="-94" y="3366" width="70" height="40" as="geometry" />
        </mxCell>
        <mxCell id="k_sBdBxjnJnmiXeVj0B4-316" value="工号" style="ellipse;whiteSpace=wrap;html=1;" vertex="1" parent="1">
          <mxGeometry x="-191.5" y="3348" width="61" height="40" as="geometry" />
        </mxCell>
        <mxCell id="k_sBdBxjnJnmiXeVj0B4-317" value="管理区域" style="ellipse;whiteSpace=wrap;html=1;" vertex="1" parent="1">
          <mxGeometry x="-137" y="3298" width="60" height="40" as="geometry" />
        </mxCell>
        <mxCell id="k_sBdBxjnJnmiXeVj0B4-318" value="负责内容" style="ellipse;whiteSpace=wrap;html=1;" vertex="1" parent="1">
          <mxGeometry x="-137" y="3438" width="60" height="40" as="geometry" />
        </mxCell>
        <mxCell id="k_sBdBxjnJnmiXeVj0B4-319" value="管理人员" style="ellipse;whiteSpace=wrap;html=1;" vertex="1" parent="1">
          <mxGeometry x="-190.5" y="3398" width="61" height="40" as="geometry" />
        </mxCell>
        <mxCell id="k_sBdBxjnJnmiXeVj0B4-320" value="" style="endArrow=none;html=1;rounded=0;entryX=0.5;entryY=0;entryDx=0;entryDy=0;" edge="1" parent="1" target="k_sBdBxjnJnmiXeVj0B4-315">
          <mxGeometry width="50" height="50" relative="1" as="geometry">
            <mxPoint x="-100.5" y="3338" as="sourcePoint" />
            <mxPoint x="-30.5" y="3278" as="targetPoint" />
          </mxGeometry>
        </mxCell>
        <mxCell id="k_sBdBxjnJnmiXeVj0B4-321" value="" style="endArrow=none;html=1;rounded=0;exitX=1;exitY=0.5;exitDx=0;exitDy=0;entryX=0;entryY=0.25;entryDx=0;entryDy=0;" edge="1" parent="1" source="k_sBdBxjnJnmiXeVj0B4-316" target="k_sBdBxjnJnmiXeVj0B4-315">
          <mxGeometry width="50" height="50" relative="1" as="geometry">
            <mxPoint x="-130.5" y="3378" as="sourcePoint" />
            <mxPoint x="-80.5" y="3328" as="targetPoint" />
          </mxGeometry>
        </mxCell>
        <mxCell id="k_sBdBxjnJnmiXeVj0B4-322" value="" style="endArrow=none;html=1;rounded=0;exitX=1;exitY=0.5;exitDx=0;exitDy=0;entryX=0;entryY=0.75;entryDx=0;entryDy=0;" edge="1" parent="1" source="k_sBdBxjnJnmiXeVj0B4-319" target="k_sBdBxjnJnmiXeVj0B4-315">
          <mxGeometry width="50" height="50" relative="1" as="geometry">
            <mxPoint x="-60.5" y="3438" as="sourcePoint" />
            <mxPoint x="-10.5" y="3388" as="targetPoint" />
          </mxGeometry>
        </mxCell>
        <mxCell id="k_sBdBxjnJnmiXeVj0B4-323" value="" style="endArrow=none;html=1;rounded=0;exitX=0.769;exitY=0.123;exitDx=0;exitDy=0;entryX=0.5;entryY=1;entryDx=0;entryDy=0;exitPerimeter=0;" edge="1" parent="1" source="k_sBdBxjnJnmiXeVj0B4-318" target="k_sBdBxjnJnmiXeVj0B4-315">
          <mxGeometry width="50" height="50" relative="1" as="geometry">
            <mxPoint x="-70.5" y="3468" as="sourcePoint" />
            <mxPoint x="-20.5" y="3418" as="targetPoint" />
          </mxGeometry>
        </mxCell>
        <mxCell id="k_sBdBxjnJnmiXeVj0B4-324" value="" style="endArrow=none;html=1;rounded=0;entryX=0;entryY=0.5;entryDx=0;entryDy=0;exitX=1;exitY=0.5;exitDx=0;exitDy=0;" edge="1" parent="1" source="k_sBdBxjnJnmiXeVj0B4-315">
          <mxGeometry width="50" height="50" relative="1" as="geometry">
            <mxPoint x="-24.5" y="3386" as="sourcePoint" />
            <mxPoint x="58.5" y="3386" as="targetPoint" />
          </mxGeometry>
        </mxCell>
        <mxCell id="k_sBdBxjnJnmiXeVj0B4-325" value="1" style="edgeLabel;html=1;align=center;verticalAlign=middle;resizable=0;points=[];" vertex="1" connectable="0" parent="k_sBdBxjnJnmiXeVj0B4-324">
          <mxGeometry x="0.2848" relative="1" as="geometry">
            <mxPoint as="offset" />
          </mxGeometry>
        </mxCell>
        <mxCell id="k_sBdBxjnJnmiXeVj0B4-326" value="水产品" style="rounded=0;whiteSpace=wrap;html=1;" vertex="1" parent="1">
          <mxGeometry x="215" y="3370" width="70" height="42" as="geometry" />
        </mxCell>
        <mxCell id="k_sBdBxjnJnmiXeVj0B4-327" value="ID" style="ellipse;whiteSpace=wrap;html=1;" vertex="1" parent="1">
          <mxGeometry x="266.5" y="3220" width="62" height="42" as="geometry" />
        </mxCell>
        <mxCell id="k_sBdBxjnJnmiXeVj0B4-328" value="种类" style="ellipse;whiteSpace=wrap;html=1;" vertex="1" parent="1">
          <mxGeometry x="391.5" y="3290" width="63" height="42" as="geometry" />
        </mxCell>
        <mxCell id="k_sBdBxjnJnmiXeVj0B4-329" value="量" style="ellipse;whiteSpace=wrap;html=1;" vertex="1" parent="1">
          <mxGeometry x="396.5" y="3390" width="63" height="42" as="geometry" />
        </mxCell>
        <mxCell id="k_sBdBxjnJnmiXeVj0B4-330" value="所产水域" style="ellipse;whiteSpace=wrap;html=1;" vertex="1" parent="1">
          <mxGeometry x="340.5" y="3480" width="63" height="42" as="geometry" />
        </mxCell>
        <mxCell id="k_sBdBxjnJnmiXeVj0B4-331" value="保质期" style="ellipse;whiteSpace=wrap;html=1;" vertex="1" parent="1">
          <mxGeometry x="394.5" y="3343.5" width="64" height="42" as="geometry" />
        </mxCell>
        <mxCell id="k_sBdBxjnJnmiXeVj0B4-332" value="质检结果" style="ellipse;whiteSpace=wrap;html=1;" vertex="1" parent="1">
          <mxGeometry x="348" y="3248" width="63.5" height="42" as="geometry" />
        </mxCell>
        <mxCell id="k_sBdBxjnJnmiXeVj0B4-333" value="产出时间" style="ellipse;whiteSpace=wrap;html=1;" vertex="1" parent="1">
          <mxGeometry x="285" y="3510" width="63" height="42" as="geometry" />
        </mxCell>
        <mxCell id="k_sBdBxjnJnmiXeVj0B4-334" value="所属从业者" style="ellipse;whiteSpace=wrap;html=1;" vertex="1" parent="1">
          <mxGeometry x="376.5" y="3438" width="62.5" height="42" as="geometry" />
        </mxCell>
        <mxCell id="k_sBdBxjnJnmiXeVj0B4-335" value="" style="endArrow=none;html=1;rounded=0;" edge="1" parent="1">
          <mxGeometry width="50" height="50" relative="1" as="geometry">
            <mxPoint x="287.5" y="3247" as="sourcePoint" />
            <mxPoint x="307.5" y="3247" as="targetPoint" />
          </mxGeometry>
        </mxCell>
        <mxCell id="k_sBdBxjnJnmiXeVj0B4-336" value="" style="endArrow=none;html=1;rounded=0;exitX=0.686;exitY=-0.011;exitDx=0;exitDy=0;exitPerimeter=0;" edge="1" parent="1" source="k_sBdBxjnJnmiXeVj0B4-326">
          <mxGeometry width="50" height="50" relative="1" as="geometry">
            <mxPoint x="246.5" y="3312" as="sourcePoint" />
            <mxPoint x="296.5" y="3262" as="targetPoint" />
          </mxGeometry>
        </mxCell>
        <mxCell id="k_sBdBxjnJnmiXeVj0B4-337" value="" style="endArrow=none;html=1;rounded=0;" edge="1" parent="1">
          <mxGeometry width="50" height="50" relative="1" as="geometry">
            <mxPoint x="274.5" y="3371" as="sourcePoint" />
            <mxPoint x="348" y="3271" as="targetPoint" />
          </mxGeometry>
        </mxCell>
        <mxCell id="k_sBdBxjnJnmiXeVj0B4-338" value="" style="endArrow=none;html=1;rounded=0;entryX=0.002;entryY=0.434;entryDx=0;entryDy=0;entryPerimeter=0;exitX=1;exitY=0.25;exitDx=0;exitDy=0;" edge="1" parent="1" source="k_sBdBxjnJnmiXeVj0B4-326" target="k_sBdBxjnJnmiXeVj0B4-328">
          <mxGeometry width="50" height="50" relative="1" as="geometry">
            <mxPoint x="334.5" y="3361" as="sourcePoint" />
            <mxPoint x="384.5" y="3311" as="targetPoint" />
          </mxGeometry>
        </mxCell>
        <mxCell id="k_sBdBxjnJnmiXeVj0B4-339" value="" style="endArrow=none;html=1;rounded=0;exitX=1;exitY=0.5;exitDx=0;exitDy=0;" edge="1" parent="1" source="k_sBdBxjnJnmiXeVj0B4-326">
          <mxGeometry width="50" height="50" relative="1" as="geometry">
            <mxPoint x="344.5" y="3411" as="sourcePoint" />
            <mxPoint x="394.5" y="3361" as="targetPoint" />
          </mxGeometry>
        </mxCell>
        <mxCell id="k_sBdBxjnJnmiXeVj0B4-340" value="" style="endArrow=none;html=1;rounded=0;exitX=1;exitY=0.75;exitDx=0;exitDy=0;" edge="1" parent="1" source="k_sBdBxjnJnmiXeVj0B4-326">
          <mxGeometry width="50" height="50" relative="1" as="geometry">
            <mxPoint x="346.5" y="3461" as="sourcePoint" />
            <mxPoint x="396.5" y="3411" as="targetPoint" />
          </mxGeometry>
        </mxCell>
        <mxCell id="k_sBdBxjnJnmiXeVj0B4-341" value="" style="endArrow=none;html=1;rounded=0;exitX=0.984;exitY=0.894;exitDx=0;exitDy=0;exitPerimeter=0;" edge="1" parent="1" source="k_sBdBxjnJnmiXeVj0B4-326">
          <mxGeometry width="50" height="50" relative="1" as="geometry">
            <mxPoint x="326.5" y="3510" as="sourcePoint" />
            <mxPoint x="376.5" y="3460" as="targetPoint" />
          </mxGeometry>
        </mxCell>
        <mxCell id="k_sBdBxjnJnmiXeVj0B4-342" value="" style="endArrow=none;html=1;rounded=0;exitX=0.819;exitY=0.989;exitDx=0;exitDy=0;exitPerimeter=0;" edge="1" parent="1" source="k_sBdBxjnJnmiXeVj0B4-326">
          <mxGeometry width="50" height="50" relative="1" as="geometry">
            <mxPoint x="294.5" y="3541" as="sourcePoint" />
            <mxPoint x="344.5" y="3491" as="targetPoint" />
          </mxGeometry>
        </mxCell>
        <mxCell id="k_sBdBxjnJnmiXeVj0B4-343" value="" style="endArrow=none;html=1;rounded=0;exitX=0.689;exitY=1.016;exitDx=0;exitDy=0;exitPerimeter=0;" edge="1" parent="1" source="k_sBdBxjnJnmiXeVj0B4-326">
          <mxGeometry width="50" height="50" relative="1" as="geometry">
            <mxPoint x="264.5" y="3561" as="sourcePoint" />
            <mxPoint x="314.5" y="3511" as="targetPoint" />
          </mxGeometry>
        </mxCell>
        <mxCell id="k_sBdBxjnJnmiXeVj0B4-344" value="" style="endArrow=classic;html=1;rounded=0;entryX=0.003;entryY=0.388;entryDx=0;entryDy=0;entryPerimeter=0;exitX=1;exitY=0.5;exitDx=0;exitDy=0;" edge="1" parent="1" target="k_sBdBxjnJnmiXeVj0B4-326">
          <mxGeometry width="50" height="50" relative="1" as="geometry">
            <mxPoint x="136.5" y="3386" as="sourcePoint" />
            <mxPoint x="186.5" y="3335.5" as="targetPoint" />
          </mxGeometry>
        </mxCell>
        <mxCell id="k_sBdBxjnJnmiXeVj0B4-345" value="n" style="edgeLabel;html=1;align=center;verticalAlign=middle;resizable=0;points=[];" vertex="1" connectable="0" parent="k_sBdBxjnJnmiXeVj0B4-344">
          <mxGeometry x="-0.2355" y="2" relative="1" as="geometry">
            <mxPoint as="offset" />
          </mxGeometry>
        </mxCell>
        <mxCell id="k_sBdBxjnJnmiXeVj0B4-346" value="登记和管理" style="rhombus;whiteSpace=wrap;html=1;" vertex="1" parent="1">
          <mxGeometry x="59" y="3363.5" width="80" height="45" as="geometry" />
        </mxCell>
        <mxCell id="k_sBdBxjnJnmiXeVj0B4-349" value="海域" style="rounded=0;whiteSpace=wrap;html=1;" vertex="1" parent="1">
          <mxGeometry x="-84.5" y="3750" width="60" height="40" as="geometry" />
        </mxCell>
        <mxCell id="k_sBdBxjnJnmiXeVj0B4-351" value="位置" style="ellipse;whiteSpace=wrap;html=1;" vertex="1" parent="1">
          <mxGeometry x="-200.5" y="3690" width="60" height="40" as="geometry" />
        </mxCell>
        <mxCell id="k_sBdBxjnJnmiXeVj0B4-352" value="所属" style="ellipse;whiteSpace=wrap;html=1;" vertex="1" parent="1">
          <mxGeometry x="-230.5" y="3750" width="60" height="40" as="geometry" />
        </mxCell>
        <mxCell id="k_sBdBxjnJnmiXeVj0B4-353" value="范围" style="ellipse;whiteSpace=wrap;html=1;" vertex="1" parent="1">
          <mxGeometry x="-140.5" y="3660" width="60" height="40" as="geometry" />
        </mxCell>
        <mxCell id="k_sBdBxjnJnmiXeVj0B4-354" value="当前辐射程度" style="ellipse;whiteSpace=wrap;html=1;" vertex="1" parent="1">
          <mxGeometry x="-143" y="3840" width="59" height="40" as="geometry" />
        </mxCell>
        <mxCell id="k_sBdBxjnJnmiXeVj0B4-360" value="" style="endArrow=none;html=1;rounded=0;" edge="1" parent="1" source="k_sBdBxjnJnmiXeVj0B4-350">
          <mxGeometry width="50" height="50" relative="1" as="geometry">
            <mxPoint x="-174" y="3830" as="sourcePoint" />
            <mxPoint x="-154" y="3830" as="targetPoint" />
          </mxGeometry>
        </mxCell>
        <mxCell id="k_sBdBxjnJnmiXeVj0B4-361" value="" style="endArrow=none;html=1;rounded=0;" edge="1" parent="1" target="k_sBdBxjnJnmiXeVj0B4-350">
          <mxGeometry width="50" height="50" relative="1" as="geometry">
            <mxPoint x="-174" y="3830" as="sourcePoint" />
            <mxPoint x="-154" y="3830" as="targetPoint" />
          </mxGeometry>
        </mxCell>
        <mxCell id="k_sBdBxjnJnmiXeVj0B4-350" value="ID" style="ellipse;whiteSpace=wrap;html=1;" vertex="1" parent="1">
          <mxGeometry x="-209.5" y="3810" width="60" height="40" as="geometry" />
        </mxCell>
        <mxCell id="k_sBdBxjnJnmiXeVj0B4-362" value="" style="endArrow=none;html=1;rounded=0;exitX=1;exitY=1;exitDx=0;exitDy=0;entryX=0.25;entryY=0;entryDx=0;entryDy=0;" edge="1" parent="1" source="k_sBdBxjnJnmiXeVj0B4-353" target="k_sBdBxjnJnmiXeVj0B4-349">
          <mxGeometry width="50" height="50" relative="1" as="geometry">
            <mxPoint x="-94" y="3690" as="sourcePoint" />
            <mxPoint x="-44" y="3640" as="targetPoint" />
          </mxGeometry>
        </mxCell>
        <mxCell id="k_sBdBxjnJnmiXeVj0B4-363" value="" style="endArrow=none;html=1;rounded=0;exitX=1;exitY=0;exitDx=0;exitDy=0;" edge="1" parent="1" source="k_sBdBxjnJnmiXeVj0B4-354">
          <mxGeometry width="50" height="50" relative="1" as="geometry">
            <mxPoint x="-84" y="3860" as="sourcePoint" />
            <mxPoint x="-64" y="3790" as="targetPoint" />
          </mxGeometry>
        </mxCell>
        <mxCell id="k_sBdBxjnJnmiXeVj0B4-364" value="" style="endArrow=none;html=1;rounded=0;exitX=0.953;exitY=0.751;exitDx=0;exitDy=0;exitPerimeter=0;entryX=0;entryY=0.25;entryDx=0;entryDy=0;" edge="1" parent="1" source="k_sBdBxjnJnmiXeVj0B4-351" target="k_sBdBxjnJnmiXeVj0B4-349">
          <mxGeometry width="50" height="50" relative="1" as="geometry">
            <mxPoint x="-140.5" y="3720" as="sourcePoint" />
            <mxPoint x="-69.78932188134524" y="3720" as="targetPoint" />
          </mxGeometry>
        </mxCell>
        <mxCell id="k_sBdBxjnJnmiXeVj0B4-365" value="" style="endArrow=none;html=1;rounded=0;exitX=1;exitY=0.5;exitDx=0;exitDy=0;entryX=0;entryY=0.75;entryDx=0;entryDy=0;" edge="1" parent="1" source="k_sBdBxjnJnmiXeVj0B4-350" target="k_sBdBxjnJnmiXeVj0B4-349">
          <mxGeometry width="50" height="50" relative="1" as="geometry">
            <mxPoint x="-144" y="3830" as="sourcePoint" />
            <mxPoint x="-94" y="3780" as="targetPoint" />
          </mxGeometry>
        </mxCell>
        <mxCell id="k_sBdBxjnJnmiXeVj0B4-366" value="" style="endArrow=none;html=1;rounded=0;exitX=1;exitY=0.5;exitDx=0;exitDy=0;entryX=0;entryY=0.5;entryDx=0;entryDy=0;" edge="1" parent="1" source="k_sBdBxjnJnmiXeVj0B4-352" target="k_sBdBxjnJnmiXeVj0B4-349">
          <mxGeometry width="50" height="50" relative="1" as="geometry">
            <mxPoint x="-144" y="3800" as="sourcePoint" />
            <mxPoint x="-94" y="3750" as="targetPoint" />
          </mxGeometry>
        </mxCell>
        <mxCell id="k_sBdBxjnJnmiXeVj0B4-367" value="水产品" style="rounded=0;whiteSpace=wrap;html=1;" vertex="1" parent="1">
          <mxGeometry x="229" y="3754" width="70" height="42" as="geometry" />
        </mxCell>
        <mxCell id="k_sBdBxjnJnmiXeVj0B4-368" value="ID" style="ellipse;whiteSpace=wrap;html=1;" vertex="1" parent="1">
          <mxGeometry x="280.5" y="3604" width="62" height="42" as="geometry" />
        </mxCell>
        <mxCell id="k_sBdBxjnJnmiXeVj0B4-369" value="种类" style="ellipse;whiteSpace=wrap;html=1;" vertex="1" parent="1">
          <mxGeometry x="405.5" y="3674" width="63" height="42" as="geometry" />
        </mxCell>
        <mxCell id="k_sBdBxjnJnmiXeVj0B4-370" value="量" style="ellipse;whiteSpace=wrap;html=1;" vertex="1" parent="1">
          <mxGeometry x="410.5" y="3774" width="63" height="42" as="geometry" />
        </mxCell>
        <mxCell id="k_sBdBxjnJnmiXeVj0B4-371" value="所产水域" style="ellipse;whiteSpace=wrap;html=1;" vertex="1" parent="1">
          <mxGeometry x="354.5" y="3864" width="63" height="42" as="geometry" />
        </mxCell>
        <mxCell id="k_sBdBxjnJnmiXeVj0B4-372" value="保质期" style="ellipse;whiteSpace=wrap;html=1;" vertex="1" parent="1">
          <mxGeometry x="408.5" y="3727.5" width="64" height="42" as="geometry" />
        </mxCell>
        <mxCell id="k_sBdBxjnJnmiXeVj0B4-373" value="质检结果" style="ellipse;whiteSpace=wrap;html=1;" vertex="1" parent="1">
          <mxGeometry x="362" y="3632" width="63.5" height="42" as="geometry" />
        </mxCell>
        <mxCell id="k_sBdBxjnJnmiXeVj0B4-374" value="产出时间" style="ellipse;whiteSpace=wrap;html=1;" vertex="1" parent="1">
          <mxGeometry x="299" y="3894" width="63" height="42" as="geometry" />
        </mxCell>
        <mxCell id="k_sBdBxjnJnmiXeVj0B4-375" value="所属从业者" style="ellipse;whiteSpace=wrap;html=1;" vertex="1" parent="1">
          <mxGeometry x="390.5" y="3822" width="62.5" height="42" as="geometry" />
        </mxCell>
        <mxCell id="k_sBdBxjnJnmiXeVj0B4-376" value="" style="endArrow=none;html=1;rounded=0;" edge="1" parent="1">
          <mxGeometry width="50" height="50" relative="1" as="geometry">
            <mxPoint x="301.5" y="3631" as="sourcePoint" />
            <mxPoint x="321.5" y="3631" as="targetPoint" />
          </mxGeometry>
        </mxCell>
        <mxCell id="k_sBdBxjnJnmiXeVj0B4-377" value="" style="endArrow=none;html=1;rounded=0;exitX=0.686;exitY=-0.011;exitDx=0;exitDy=0;exitPerimeter=0;" edge="1" parent="1" source="k_sBdBxjnJnmiXeVj0B4-367">
          <mxGeometry width="50" height="50" relative="1" as="geometry">
            <mxPoint x="260.5" y="3696" as="sourcePoint" />
            <mxPoint x="310.5" y="3646" as="targetPoint" />
          </mxGeometry>
        </mxCell>
        <mxCell id="k_sBdBxjnJnmiXeVj0B4-378" value="" style="endArrow=none;html=1;rounded=0;" edge="1" parent="1">
          <mxGeometry width="50" height="50" relative="1" as="geometry">
            <mxPoint x="288.5" y="3755" as="sourcePoint" />
            <mxPoint x="362" y="3655" as="targetPoint" />
          </mxGeometry>
        </mxCell>
        <mxCell id="k_sBdBxjnJnmiXeVj0B4-379" value="" style="endArrow=none;html=1;rounded=0;entryX=0.002;entryY=0.434;entryDx=0;entryDy=0;entryPerimeter=0;exitX=1;exitY=0.25;exitDx=0;exitDy=0;" edge="1" parent="1" source="k_sBdBxjnJnmiXeVj0B4-367" target="k_sBdBxjnJnmiXeVj0B4-369">
          <mxGeometry width="50" height="50" relative="1" as="geometry">
            <mxPoint x="348.5" y="3745" as="sourcePoint" />
            <mxPoint x="398.5" y="3695" as="targetPoint" />
          </mxGeometry>
        </mxCell>
        <mxCell id="k_sBdBxjnJnmiXeVj0B4-380" value="" style="endArrow=none;html=1;rounded=0;exitX=1;exitY=0.5;exitDx=0;exitDy=0;" edge="1" parent="1" source="k_sBdBxjnJnmiXeVj0B4-367">
          <mxGeometry width="50" height="50" relative="1" as="geometry">
            <mxPoint x="358.5" y="3795" as="sourcePoint" />
            <mxPoint x="408.5" y="3745" as="targetPoint" />
          </mxGeometry>
        </mxCell>
        <mxCell id="k_sBdBxjnJnmiXeVj0B4-381" value="" style="endArrow=none;html=1;rounded=0;exitX=1;exitY=0.75;exitDx=0;exitDy=0;" edge="1" parent="1" source="k_sBdBxjnJnmiXeVj0B4-367">
          <mxGeometry width="50" height="50" relative="1" as="geometry">
            <mxPoint x="360.5" y="3845" as="sourcePoint" />
            <mxPoint x="410.5" y="3795" as="targetPoint" />
          </mxGeometry>
        </mxCell>
        <mxCell id="k_sBdBxjnJnmiXeVj0B4-382" value="" style="endArrow=none;html=1;rounded=0;exitX=0.984;exitY=0.894;exitDx=0;exitDy=0;exitPerimeter=0;" edge="1" parent="1" source="k_sBdBxjnJnmiXeVj0B4-367">
          <mxGeometry width="50" height="50" relative="1" as="geometry">
            <mxPoint x="340.5" y="3894" as="sourcePoint" />
            <mxPoint x="390.5" y="3844" as="targetPoint" />
          </mxGeometry>
        </mxCell>
        <mxCell id="k_sBdBxjnJnmiXeVj0B4-383" value="" style="endArrow=none;html=1;rounded=0;exitX=0.819;exitY=0.989;exitDx=0;exitDy=0;exitPerimeter=0;" edge="1" parent="1" source="k_sBdBxjnJnmiXeVj0B4-367">
          <mxGeometry width="50" height="50" relative="1" as="geometry">
            <mxPoint x="308.5" y="3925" as="sourcePoint" />
            <mxPoint x="358.5" y="3875" as="targetPoint" />
          </mxGeometry>
        </mxCell>
        <mxCell id="k_sBdBxjnJnmiXeVj0B4-384" value="" style="endArrow=none;html=1;rounded=0;exitX=0.689;exitY=1.016;exitDx=0;exitDy=0;exitPerimeter=0;" edge="1" parent="1" source="k_sBdBxjnJnmiXeVj0B4-367">
          <mxGeometry width="50" height="50" relative="1" as="geometry">
            <mxPoint x="278.5" y="3945" as="sourcePoint" />
            <mxPoint x="328.5" y="3895" as="targetPoint" />
          </mxGeometry>
        </mxCell>
        <mxCell id="k_sBdBxjnJnmiXeVj0B4-385" value="" style="endArrow=classic;html=1;rounded=0;entryX=0.003;entryY=0.388;entryDx=0;entryDy=0;entryPerimeter=0;exitX=1;exitY=0.5;exitDx=0;exitDy=0;" edge="1" parent="1" target="k_sBdBxjnJnmiXeVj0B4-367">
          <mxGeometry width="50" height="50" relative="1" as="geometry">
            <mxPoint x="150.5" y="3770" as="sourcePoint" />
            <mxPoint x="200.5" y="3719.5" as="targetPoint" />
          </mxGeometry>
        </mxCell>
        <mxCell id="k_sBdBxjnJnmiXeVj0B4-386" value="n" style="edgeLabel;html=1;align=center;verticalAlign=middle;resizable=0;points=[];" vertex="1" connectable="0" parent="k_sBdBxjnJnmiXeVj0B4-385">
          <mxGeometry x="-0.2355" y="2" relative="1" as="geometry">
            <mxPoint as="offset" />
          </mxGeometry>
        </mxCell>
        <mxCell id="k_sBdBxjnJnmiXeVj0B4-387" value="产出" style="rhombus;whiteSpace=wrap;html=1;" vertex="1" parent="1">
          <mxGeometry x="75" y="3745" width="80" height="50" as="geometry" />
        </mxCell>
        <mxCell id="k_sBdBxjnJnmiXeVj0B4-388" value="" style="endArrow=none;html=1;rounded=0;entryX=0;entryY=0.5;entryDx=0;entryDy=0;exitX=1;exitY=0.5;exitDx=0;exitDy=0;" edge="1" parent="1" source="k_sBdBxjnJnmiXeVj0B4-349" target="k_sBdBxjnJnmiXeVj0B4-387">
          <mxGeometry width="50" height="50" relative="1" as="geometry">
            <mxPoint x="10" y="3820" as="sourcePoint" />
            <mxPoint x="60" y="3770" as="targetPoint" />
          </mxGeometry>
        </mxCell>
        <mxCell id="k_sBdBxjnJnmiXeVj0B4-389" value="1" style="edgeLabel;html=1;align=center;verticalAlign=middle;resizable=0;points=[];" vertex="1" connectable="0" parent="k_sBdBxjnJnmiXeVj0B4-388">
          <mxGeometry x="0.0017" y="1" relative="1" as="geometry">
            <mxPoint as="offset" />
          </mxGeometry>
        </mxCell>
        <mxCell id="k_sBdBxjnJnmiXeVj0B4-390" value="申请" style="rounded=0;whiteSpace=wrap;html=1;" vertex="1" parent="1">
          <mxGeometry x="230" y="4180" width="73" height="40" as="geometry" />
        </mxCell>
        <mxCell id="k_sBdBxjnJnmiXeVj0B4-391" value="申请人" style="ellipse;whiteSpace=wrap;html=1;" vertex="1" parent="1">
          <mxGeometry x="399" y="4190" width="63" height="40" as="geometry" />
        </mxCell>
        <mxCell id="k_sBdBxjnJnmiXeVj0B4-392" value="申请时间" style="ellipse;whiteSpace=wrap;html=1;" vertex="1" parent="1">
          <mxGeometry x="370.75" y="4290" width="63" height="40" as="geometry" />
        </mxCell>
        <mxCell id="k_sBdBxjnJnmiXeVj0B4-393" value="申请活动" style="ellipse;whiteSpace=wrap;html=1;" vertex="1" parent="1">
          <mxGeometry x="399" y="4240" width="63" height="40" as="geometry" />
        </mxCell>
        <mxCell id="k_sBdBxjnJnmiXeVj0B4-394" value="审批时间" style="ellipse;whiteSpace=wrap;html=1;" vertex="1" parent="1">
          <mxGeometry x="353" y="4050" width="60" height="40" as="geometry" />
        </mxCell>
        <mxCell id="k_sBdBxjnJnmiXeVj0B4-395" value="申请海域" style="ellipse;whiteSpace=wrap;html=1;" vertex="1" parent="1">
          <mxGeometry x="384" y="4090" width="63" height="40" as="geometry" />
        </mxCell>
        <mxCell id="k_sBdBxjnJnmiXeVj0B4-396" value="审批状态" style="ellipse;whiteSpace=wrap;html=1;" vertex="1" parent="1">
          <mxGeometry x="307" y="4010" width="60" height="40" as="geometry" />
        </mxCell>
        <mxCell id="k_sBdBxjnJnmiXeVj0B4-397" value="申请时间" style="ellipse;whiteSpace=wrap;html=1;" vertex="1" parent="1">
          <mxGeometry x="399" y="4140" width="64.5" height="40" as="geometry" />
        </mxCell>
        <mxCell id="k_sBdBxjnJnmiXeVj0B4-398" value="审批人" style="ellipse;whiteSpace=wrap;html=1;" vertex="1" parent="1">
          <mxGeometry x="293" y="4380" width="60" height="40" as="geometry" />
        </mxCell>
        <mxCell id="k_sBdBxjnJnmiXeVj0B4-399" value="ID" style="ellipse;whiteSpace=wrap;html=1;" vertex="1" parent="1">
          <mxGeometry x="345" y="4340" width="63" height="40" as="geometry" />
        </mxCell>
        <mxCell id="k_sBdBxjnJnmiXeVj0B4-400" value="" style="endArrow=none;html=1;rounded=0;" edge="1" parent="1">
          <mxGeometry width="50" height="50" relative="1" as="geometry">
            <mxPoint x="368.5" y="4370" as="sourcePoint" />
            <mxPoint x="385.5" y="4370" as="targetPoint" />
          </mxGeometry>
        </mxCell>
        <mxCell id="k_sBdBxjnJnmiXeVj0B4-401" value="渔业从业者" style="rounded=0;whiteSpace=wrap;html=1;" vertex="1" parent="1">
          <mxGeometry x="-22.5" y="4177" width="65" height="40" as="geometry" />
        </mxCell>
        <mxCell id="k_sBdBxjnJnmiXeVj0B4-402" value="身份证号" style="ellipse;whiteSpace=wrap;html=1;" vertex="1" parent="1">
          <mxGeometry x="-149" y="4117" width="59" height="40" as="geometry" />
        </mxCell>
        <mxCell id="k_sBdBxjnJnmiXeVj0B4-403" value="违规状态" style="ellipse;whiteSpace=wrap;html=1;" vertex="1" parent="1">
          <mxGeometry x="-86.5" y="4267" width="61" height="38" as="geometry" />
        </mxCell>
        <mxCell id="k_sBdBxjnJnmiXeVj0B4-404" value="真实姓名" style="ellipse;whiteSpace=wrap;html=1;" vertex="1" parent="1">
          <mxGeometry x="-80" y="4097" width="62" height="38" as="geometry" />
        </mxCell>
        <mxCell id="k_sBdBxjnJnmiXeVj0B4-405" value="居住地" style="ellipse;whiteSpace=wrap;html=1;" vertex="1" parent="1">
          <mxGeometry x="-180" y="4177" width="58" height="40" as="geometry" />
        </mxCell>
        <mxCell id="k_sBdBxjnJnmiXeVj0B4-406" value="从事工作" style="ellipse;whiteSpace=wrap;html=1;" vertex="1" parent="1">
          <mxGeometry x="-155.5" y="4237" width="59" height="37" as="geometry" />
        </mxCell>
        <mxCell id="k_sBdBxjnJnmiXeVj0B4-407" value="" style="endArrow=none;html=1;rounded=0;entryX=1;entryY=1;entryDx=0;entryDy=0;" edge="1" parent="1" target="k_sBdBxjnJnmiXeVj0B4-404">
          <mxGeometry width="50" height="50" relative="1" as="geometry">
            <mxPoint y="4177" as="sourcePoint" />
            <mxPoint x="50" y="4127" as="targetPoint" />
          </mxGeometry>
        </mxCell>
        <mxCell id="k_sBdBxjnJnmiXeVj0B4-408" value="" style="endArrow=none;html=1;rounded=0;exitX=1;exitY=1;exitDx=0;exitDy=0;entryX=0;entryY=0.25;entryDx=0;entryDy=0;" edge="1" parent="1" source="k_sBdBxjnJnmiXeVj0B4-402" target="k_sBdBxjnJnmiXeVj0B4-401">
          <mxGeometry width="50" height="50" relative="1" as="geometry">
            <mxPoint x="-80" y="4237" as="sourcePoint" />
            <mxPoint x="-30" y="4187" as="targetPoint" />
          </mxGeometry>
        </mxCell>
        <mxCell id="k_sBdBxjnJnmiXeVj0B4-409" value="" style="endArrow=none;html=1;rounded=0;exitX=1;exitY=0.5;exitDx=0;exitDy=0;entryX=0;entryY=0.5;entryDx=0;entryDy=0;" edge="1" parent="1" source="k_sBdBxjnJnmiXeVj0B4-405" target="k_sBdBxjnJnmiXeVj0B4-401">
          <mxGeometry width="50" height="50" relative="1" as="geometry">
            <mxPoint x="-80" y="4247" as="sourcePoint" />
            <mxPoint x="-30" y="4197" as="targetPoint" />
          </mxGeometry>
        </mxCell>
        <mxCell id="k_sBdBxjnJnmiXeVj0B4-410" value="" style="endArrow=none;html=1;rounded=0;exitX=1;exitY=0.5;exitDx=0;exitDy=0;entryX=0;entryY=0.75;entryDx=0;entryDy=0;" edge="1" parent="1" source="k_sBdBxjnJnmiXeVj0B4-406" target="k_sBdBxjnJnmiXeVj0B4-401">
          <mxGeometry width="50" height="50" relative="1" as="geometry">
            <mxPoint x="-80" y="4257" as="sourcePoint" />
            <mxPoint x="-30" y="4207" as="targetPoint" />
          </mxGeometry>
        </mxCell>
        <mxCell id="k_sBdBxjnJnmiXeVj0B4-411" value="" style="endArrow=none;html=1;rounded=0;" edge="1" parent="1">
          <mxGeometry width="50" height="50" relative="1" as="geometry">
            <mxPoint x="-50" y="4267" as="sourcePoint" />
            <mxPoint y="4217" as="targetPoint" />
          </mxGeometry>
        </mxCell>
        <mxCell id="k_sBdBxjnJnmiXeVj0B4-412" value="发起" style="rhombus;whiteSpace=wrap;html=1;" vertex="1" parent="1">
          <mxGeometry x="100" y="4175" width="80" height="50" as="geometry" />
        </mxCell>
        <mxCell id="k_sBdBxjnJnmiXeVj0B4-414" value="" style="endArrow=none;html=1;rounded=0;entryX=0;entryY=0.5;entryDx=0;entryDy=0;" edge="1" parent="1" target="k_sBdBxjnJnmiXeVj0B4-412">
          <mxGeometry width="50" height="50" relative="1" as="geometry">
            <mxPoint x="42" y="4200" as="sourcePoint" />
            <mxPoint x="92" y="4150" as="targetPoint" />
          </mxGeometry>
        </mxCell>
        <mxCell id="k_sBdBxjnJnmiXeVj0B4-416" value="1" style="edgeLabel;html=1;align=center;verticalAlign=middle;resizable=0;points=[];" vertex="1" connectable="0" parent="k_sBdBxjnJnmiXeVj0B4-414">
          <mxGeometry x="0.0115" y="-1" relative="1" as="geometry">
            <mxPoint as="offset" />
          </mxGeometry>
        </mxCell>
        <mxCell id="k_sBdBxjnJnmiXeVj0B4-415" value="" style="endArrow=classic;html=1;rounded=0;entryX=0;entryY=0.5;entryDx=0;entryDy=0;" edge="1" parent="1" target="k_sBdBxjnJnmiXeVj0B4-390">
          <mxGeometry width="50" height="50" relative="1" as="geometry">
            <mxPoint x="180" y="4200" as="sourcePoint" />
            <mxPoint x="230" y="4150" as="targetPoint" />
          </mxGeometry>
        </mxCell>
        <mxCell id="k_sBdBxjnJnmiXeVj0B4-417" value="n" style="edgeLabel;html=1;align=center;verticalAlign=middle;resizable=0;points=[];" vertex="1" connectable="0" parent="k_sBdBxjnJnmiXeVj0B4-415">
          <mxGeometry x="-0.0777" y="2" relative="1" as="geometry">
            <mxPoint as="offset" />
          </mxGeometry>
        </mxCell>
        <mxCell id="k_sBdBxjnJnmiXeVj0B4-418" value="" style="endArrow=none;html=1;rounded=0;exitX=0.5;exitY=0;exitDx=0;exitDy=0;entryX=0;entryY=1;entryDx=0;entryDy=0;" edge="1" parent="1" source="k_sBdBxjnJnmiXeVj0B4-390" target="k_sBdBxjnJnmiXeVj0B4-396">
          <mxGeometry width="50" height="50" relative="1" as="geometry">
            <mxPoint x="270" y="4100" as="sourcePoint" />
            <mxPoint x="320" y="4050" as="targetPoint" />
          </mxGeometry>
        </mxCell>
        <mxCell id="k_sBdBxjnJnmiXeVj0B4-419" value="" style="endArrow=none;html=1;rounded=0;entryX=0.06;entryY=0.717;entryDx=0;entryDy=0;entryPerimeter=0;" edge="1" parent="1" target="k_sBdBxjnJnmiXeVj0B4-394">
          <mxGeometry width="50" height="50" relative="1" as="geometry">
            <mxPoint x="280" y="4180" as="sourcePoint" />
            <mxPoint x="330" y="4130" as="targetPoint" />
          </mxGeometry>
        </mxCell>
        <mxCell id="k_sBdBxjnJnmiXeVj0B4-420" value="" style="endArrow=none;html=1;rounded=0;entryX=0;entryY=0.5;entryDx=0;entryDy=0;exitX=0.859;exitY=-0.005;exitDx=0;exitDy=0;exitPerimeter=0;" edge="1" parent="1" source="k_sBdBxjnJnmiXeVj0B4-390" target="k_sBdBxjnJnmiXeVj0B4-395">
          <mxGeometry width="50" height="50" relative="1" as="geometry">
            <mxPoint x="291.5" y="4180" as="sourcePoint" />
            <mxPoint x="341.5" y="4130" as="targetPoint" />
          </mxGeometry>
        </mxCell>
        <mxCell id="k_sBdBxjnJnmiXeVj0B4-422" value="" style="endArrow=none;html=1;rounded=0;exitX=1;exitY=0.25;exitDx=0;exitDy=0;entryX=0;entryY=0.5;entryDx=0;entryDy=0;" edge="1" parent="1" source="k_sBdBxjnJnmiXeVj0B4-390" target="k_sBdBxjnJnmiXeVj0B4-397">
          <mxGeometry width="50" height="50" relative="1" as="geometry">
            <mxPoint x="320" y="4190" as="sourcePoint" />
            <mxPoint x="370" y="4140" as="targetPoint" />
          </mxGeometry>
        </mxCell>
        <mxCell id="k_sBdBxjnJnmiXeVj0B4-423" value="" style="endArrow=none;html=1;rounded=0;entryX=0;entryY=0.5;entryDx=0;entryDy=0;exitX=1;exitY=0.5;exitDx=0;exitDy=0;" edge="1" parent="1" source="k_sBdBxjnJnmiXeVj0B4-390" target="k_sBdBxjnJnmiXeVj0B4-391">
          <mxGeometry width="50" height="50" relative="1" as="geometry">
            <mxPoint x="330" y="4260" as="sourcePoint" />
            <mxPoint x="380" y="4210" as="targetPoint" />
          </mxGeometry>
        </mxCell>
        <mxCell id="k_sBdBxjnJnmiXeVj0B4-424" value="" style="endArrow=none;html=1;rounded=0;entryX=0;entryY=0.5;entryDx=0;entryDy=0;exitX=1;exitY=0.75;exitDx=0;exitDy=0;" edge="1" parent="1" source="k_sBdBxjnJnmiXeVj0B4-390" target="k_sBdBxjnJnmiXeVj0B4-393">
          <mxGeometry width="50" height="50" relative="1" as="geometry">
            <mxPoint x="300" y="4290" as="sourcePoint" />
            <mxPoint x="350" y="4240" as="targetPoint" />
          </mxGeometry>
        </mxCell>
        <mxCell id="k_sBdBxjnJnmiXeVj0B4-425" value="" style="endArrow=none;html=1;rounded=0;entryX=0;entryY=0.5;entryDx=0;entryDy=0;" edge="1" parent="1" target="k_sBdBxjnJnmiXeVj0B4-392">
          <mxGeometry width="50" height="50" relative="1" as="geometry">
            <mxPoint x="290" y="4220" as="sourcePoint" />
            <mxPoint x="230" y="4260" as="targetPoint" />
          </mxGeometry>
        </mxCell>
        <mxCell id="k_sBdBxjnJnmiXeVj0B4-426" value="" style="endArrow=none;html=1;rounded=0;entryX=0;entryY=0.5;entryDx=0;entryDy=0;exitX=0.75;exitY=1;exitDx=0;exitDy=0;" edge="1" parent="1" source="k_sBdBxjnJnmiXeVj0B4-390" target="k_sBdBxjnJnmiXeVj0B4-399">
          <mxGeometry width="50" height="50" relative="1" as="geometry">
            <mxPoint x="240" y="4350" as="sourcePoint" />
            <mxPoint x="290" y="4300" as="targetPoint" />
          </mxGeometry>
        </mxCell>
        <mxCell id="k_sBdBxjnJnmiXeVj0B4-427" value="" style="endArrow=none;html=1;rounded=0;entryX=0.5;entryY=0;entryDx=0;entryDy=0;" edge="1" parent="1" target="k_sBdBxjnJnmiXeVj0B4-398">
          <mxGeometry width="50" height="50" relative="1" as="geometry">
            <mxPoint x="270" y="4220" as="sourcePoint" />
            <mxPoint x="150" y="4300" as="targetPoint" />
          </mxGeometry>
        </mxCell>
        <mxCell id="k_sBdBxjnJnmiXeVj0B4-428" value="历史辐射程度" style="rounded=0;whiteSpace=wrap;html=1;" vertex="1" parent="1">
          <mxGeometry x="234" y="4590" width="72" height="40" as="geometry" />
        </mxCell>
        <mxCell id="k_sBdBxjnJnmiXeVj0B4-429" value="海域" style="ellipse;whiteSpace=wrap;html=1;" vertex="1" parent="1">
          <mxGeometry x="355.5" y="4590" width="62" height="40" as="geometry" />
        </mxCell>
        <mxCell id="k_sBdBxjnJnmiXeVj0B4-430" value="辐射程度" style="ellipse;whiteSpace=wrap;html=1;" vertex="1" parent="1">
          <mxGeometry x="318.5" y="4510" width="60" height="40" as="geometry" />
        </mxCell>
        <mxCell id="k_sBdBxjnJnmiXeVj0B4-431" value="时间" style="ellipse;whiteSpace=wrap;html=1;" vertex="1" parent="1">
          <mxGeometry x="313" y="4670" width="60" height="40" as="geometry" />
        </mxCell>
        <mxCell id="k_sBdBxjnJnmiXeVj0B4-448" value="海域" style="rounded=0;whiteSpace=wrap;html=1;" vertex="1" parent="1">
          <mxGeometry x="-18.5" y="4590" width="60" height="40" as="geometry" />
        </mxCell>
        <mxCell id="k_sBdBxjnJnmiXeVj0B4-449" value="位置" style="ellipse;whiteSpace=wrap;html=1;" vertex="1" parent="1">
          <mxGeometry x="-134.5" y="4530" width="60" height="40" as="geometry" />
        </mxCell>
        <mxCell id="k_sBdBxjnJnmiXeVj0B4-450" value="所属" style="ellipse;whiteSpace=wrap;html=1;" vertex="1" parent="1">
          <mxGeometry x="-164.5" y="4590" width="60" height="40" as="geometry" />
        </mxCell>
        <mxCell id="k_sBdBxjnJnmiXeVj0B4-451" value="范围" style="ellipse;whiteSpace=wrap;html=1;" vertex="1" parent="1">
          <mxGeometry x="-74.5" y="4500" width="60" height="40" as="geometry" />
        </mxCell>
        <mxCell id="k_sBdBxjnJnmiXeVj0B4-452" value="当前辐射程度" style="ellipse;whiteSpace=wrap;html=1;" vertex="1" parent="1">
          <mxGeometry x="-77" y="4680" width="59" height="40" as="geometry" />
        </mxCell>
        <mxCell id="k_sBdBxjnJnmiXeVj0B4-453" value="" style="endArrow=none;html=1;rounded=0;" edge="1" parent="1" source="k_sBdBxjnJnmiXeVj0B4-455">
          <mxGeometry width="50" height="50" relative="1" as="geometry">
            <mxPoint x="-108" y="4670" as="sourcePoint" />
            <mxPoint x="-88" y="4670" as="targetPoint" />
          </mxGeometry>
        </mxCell>
        <mxCell id="k_sBdBxjnJnmiXeVj0B4-454" value="" style="endArrow=none;html=1;rounded=0;" edge="1" parent="1" target="k_sBdBxjnJnmiXeVj0B4-455">
          <mxGeometry width="50" height="50" relative="1" as="geometry">
            <mxPoint x="-108" y="4670" as="sourcePoint" />
            <mxPoint x="-88" y="4670" as="targetPoint" />
          </mxGeometry>
        </mxCell>
        <mxCell id="k_sBdBxjnJnmiXeVj0B4-455" value="ID" style="ellipse;whiteSpace=wrap;html=1;" vertex="1" parent="1">
          <mxGeometry x="-143.5" y="4650" width="60" height="40" as="geometry" />
        </mxCell>
        <mxCell id="k_sBdBxjnJnmiXeVj0B4-456" value="" style="endArrow=none;html=1;rounded=0;exitX=1;exitY=1;exitDx=0;exitDy=0;entryX=0.25;entryY=0;entryDx=0;entryDy=0;" edge="1" parent="1" source="k_sBdBxjnJnmiXeVj0B4-451" target="k_sBdBxjnJnmiXeVj0B4-448">
          <mxGeometry width="50" height="50" relative="1" as="geometry">
            <mxPoint x="-28" y="4530" as="sourcePoint" />
            <mxPoint x="22" y="4480" as="targetPoint" />
          </mxGeometry>
        </mxCell>
        <mxCell id="k_sBdBxjnJnmiXeVj0B4-457" value="" style="endArrow=none;html=1;rounded=0;exitX=1;exitY=0;exitDx=0;exitDy=0;" edge="1" parent="1" source="k_sBdBxjnJnmiXeVj0B4-452">
          <mxGeometry width="50" height="50" relative="1" as="geometry">
            <mxPoint x="-18" y="4700" as="sourcePoint" />
            <mxPoint x="2" y="4630" as="targetPoint" />
          </mxGeometry>
        </mxCell>
        <mxCell id="k_sBdBxjnJnmiXeVj0B4-458" value="" style="endArrow=none;html=1;rounded=0;exitX=0.953;exitY=0.751;exitDx=0;exitDy=0;exitPerimeter=0;entryX=0;entryY=0.25;entryDx=0;entryDy=0;" edge="1" parent="1" source="k_sBdBxjnJnmiXeVj0B4-449" target="k_sBdBxjnJnmiXeVj0B4-448">
          <mxGeometry width="50" height="50" relative="1" as="geometry">
            <mxPoint x="-74.5" y="4560" as="sourcePoint" />
            <mxPoint x="-3.789321881345245" y="4560" as="targetPoint" />
          </mxGeometry>
        </mxCell>
        <mxCell id="k_sBdBxjnJnmiXeVj0B4-459" value="" style="endArrow=none;html=1;rounded=0;exitX=1;exitY=0.5;exitDx=0;exitDy=0;entryX=0;entryY=0.75;entryDx=0;entryDy=0;" edge="1" parent="1" source="k_sBdBxjnJnmiXeVj0B4-455" target="k_sBdBxjnJnmiXeVj0B4-448">
          <mxGeometry width="50" height="50" relative="1" as="geometry">
            <mxPoint x="-78" y="4670" as="sourcePoint" />
            <mxPoint x="-28" y="4620" as="targetPoint" />
          </mxGeometry>
        </mxCell>
        <mxCell id="k_sBdBxjnJnmiXeVj0B4-460" value="" style="endArrow=none;html=1;rounded=0;exitX=1;exitY=0.5;exitDx=0;exitDy=0;entryX=0;entryY=0.5;entryDx=0;entryDy=0;" edge="1" parent="1" source="k_sBdBxjnJnmiXeVj0B4-450" target="k_sBdBxjnJnmiXeVj0B4-448">
          <mxGeometry width="50" height="50" relative="1" as="geometry">
            <mxPoint x="-78" y="4640" as="sourcePoint" />
            <mxPoint x="-28" y="4590" as="targetPoint" />
          </mxGeometry>
        </mxCell>
        <mxCell id="k_sBdBxjnJnmiXeVj0B4-461" value="在不同时间拥有" style="rhombus;whiteSpace=wrap;html=1;" vertex="1" parent="1">
          <mxGeometry x="90" y="4585" width="100" height="50" as="geometry" />
        </mxCell>
        <mxCell id="k_sBdBxjnJnmiXeVj0B4-462" value="" style="endArrow=none;html=1;rounded=0;entryX=0;entryY=0.5;entryDx=0;entryDy=0;" edge="1" parent="1" target="k_sBdBxjnJnmiXeVj0B4-461">
          <mxGeometry width="50" height="50" relative="1" as="geometry">
            <mxPoint x="40" y="4610" as="sourcePoint" />
            <mxPoint x="90" y="4560" as="targetPoint" />
          </mxGeometry>
        </mxCell>
        <mxCell id="k_sBdBxjnJnmiXeVj0B4-468" value="1" style="edgeLabel;html=1;align=center;verticalAlign=middle;resizable=0;points=[];" vertex="1" connectable="0" parent="k_sBdBxjnJnmiXeVj0B4-462">
          <mxGeometry x="-0.0437" relative="1" as="geometry">
            <mxPoint as="offset" />
          </mxGeometry>
        </mxCell>
        <mxCell id="k_sBdBxjnJnmiXeVj0B4-464" value="" style="endArrow=classic;html=1;rounded=0;exitX=1;exitY=0.5;exitDx=0;exitDy=0;entryX=0;entryY=0.5;entryDx=0;entryDy=0;" edge="1" parent="1" source="k_sBdBxjnJnmiXeVj0B4-461" target="k_sBdBxjnJnmiXeVj0B4-428">
          <mxGeometry width="50" height="50" relative="1" as="geometry">
            <mxPoint x="200" y="4600" as="sourcePoint" />
            <mxPoint x="250" y="4550" as="targetPoint" />
          </mxGeometry>
        </mxCell>
        <mxCell id="k_sBdBxjnJnmiXeVj0B4-469" value="n" style="edgeLabel;html=1;align=center;verticalAlign=middle;resizable=0;points=[];" vertex="1" connectable="0" parent="k_sBdBxjnJnmiXeVj0B4-464">
          <mxGeometry x="-0.2111" y="2" relative="1" as="geometry">
            <mxPoint as="offset" />
          </mxGeometry>
        </mxCell>
        <mxCell id="k_sBdBxjnJnmiXeVj0B4-465" value="" style="endArrow=none;html=1;rounded=0;entryX=0;entryY=1;entryDx=0;entryDy=0;exitX=0.75;exitY=0;exitDx=0;exitDy=0;" edge="1" parent="1" source="k_sBdBxjnJnmiXeVj0B4-428" target="k_sBdBxjnJnmiXeVj0B4-430">
          <mxGeometry width="50" height="50" relative="1" as="geometry">
            <mxPoint x="270" y="4580" as="sourcePoint" />
            <mxPoint x="320" y="4530" as="targetPoint" />
          </mxGeometry>
        </mxCell>
        <mxCell id="k_sBdBxjnJnmiXeVj0B4-466" value="" style="endArrow=none;html=1;rounded=0;entryX=0;entryY=0.5;entryDx=0;entryDy=0;exitX=1;exitY=0.5;exitDx=0;exitDy=0;" edge="1" parent="1" source="k_sBdBxjnJnmiXeVj0B4-428" target="k_sBdBxjnJnmiXeVj0B4-429">
          <mxGeometry width="50" height="50" relative="1" as="geometry">
            <mxPoint x="310" y="4650" as="sourcePoint" />
            <mxPoint x="360" y="4600" as="targetPoint" />
          </mxGeometry>
        </mxCell>
        <mxCell id="k_sBdBxjnJnmiXeVj0B4-467" value="" style="endArrow=none;html=1;rounded=0;entryX=0.055;entryY=0.304;entryDx=0;entryDy=0;entryPerimeter=0;exitX=0.75;exitY=1;exitDx=0;exitDy=0;" edge="1" parent="1" source="k_sBdBxjnJnmiXeVj0B4-428" target="k_sBdBxjnJnmiXeVj0B4-431">
          <mxGeometry width="50" height="50" relative="1" as="geometry">
            <mxPoint x="120" y="4750" as="sourcePoint" />
            <mxPoint x="170" y="4700" as="targetPoint" />
          </mxGeometry>
        </mxCell>
        <mxCell id="k_sBdBxjnJnmiXeVj0B4-478" value="可进行渔业活动" style="rounded=0;whiteSpace=wrap;html=1;" vertex="1" parent="1">
          <mxGeometry x="242.13586206896537" y="4851" width="67" height="40" as="geometry" />
        </mxCell>
        <mxCell id="k_sBdBxjnJnmiXeVj0B4-479" value="活动" style="ellipse;whiteSpace=wrap;html=1;" vertex="1" parent="1">
          <mxGeometry x="336.13586206896537" y="4921" width="60" height="40" as="geometry" />
        </mxCell>
        <mxCell id="k_sBdBxjnJnmiXeVj0B4-480" value="时间段" style="ellipse;whiteSpace=wrap;html=1;" vertex="1" parent="1">
          <mxGeometry x="364.13586206896537" y="4851" width="62" height="40" as="geometry" />
        </mxCell>
        <mxCell id="k_sBdBxjnJnmiXeVj0B4-481" value="海域" style="ellipse;whiteSpace=wrap;html=1;" vertex="1" parent="1">
          <mxGeometry x="331.13586206896537" y="4780" width="70" height="40" as="geometry" />
        </mxCell>
        <mxCell id="k_sBdBxjnJnmiXeVj0B4-482" value="" style="endArrow=none;html=1;rounded=0;entryX=0;entryY=1;entryDx=0;entryDy=0;exitX=0.75;exitY=0;exitDx=0;exitDy=0;" edge="1" parent="1" source="k_sBdBxjnJnmiXeVj0B4-478" target="k_sBdBxjnJnmiXeVj0B4-481">
          <mxGeometry width="50" height="50" relative="1" as="geometry">
            <mxPoint x="299.63586206896537" y="4849" as="sourcePoint" />
            <mxPoint x="329.63586206896537" y="4819" as="targetPoint" />
          </mxGeometry>
        </mxCell>
        <mxCell id="k_sBdBxjnJnmiXeVj0B4-483" value="" style="endArrow=none;html=1;rounded=0;entryX=0;entryY=0.5;entryDx=0;entryDy=0;exitX=1;exitY=0.5;exitDx=0;exitDy=0;" edge="1" parent="1" source="k_sBdBxjnJnmiXeVj0B4-478" target="k_sBdBxjnJnmiXeVj0B4-480">
          <mxGeometry width="50" height="50" relative="1" as="geometry">
            <mxPoint x="312.13586206896537" y="4871" as="sourcePoint" />
            <mxPoint x="361.63586206896537" y="4820" as="targetPoint" />
          </mxGeometry>
        </mxCell>
        <mxCell id="k_sBdBxjnJnmiXeVj0B4-484" value="" style="endArrow=none;html=1;rounded=0;exitX=0.043;exitY=0.295;exitDx=0;exitDy=0;exitPerimeter=0;" edge="1" parent="1" source="k_sBdBxjnJnmiXeVj0B4-479">
          <mxGeometry width="50" height="50" relative="1" as="geometry">
            <mxPoint x="249.63586206896537" y="4939" as="sourcePoint" />
            <mxPoint x="302.13586206896537" y="4891" as="targetPoint" />
          </mxGeometry>
        </mxCell>
        <mxCell id="k_sBdBxjnJnmiXeVj0B4-486" value="海域" style="rounded=0;whiteSpace=wrap;html=1;" vertex="1" parent="1">
          <mxGeometry x="-18.5" y="4851" width="60" height="40" as="geometry" />
        </mxCell>
        <mxCell id="k_sBdBxjnJnmiXeVj0B4-487" value="位置" style="ellipse;whiteSpace=wrap;html=1;" vertex="1" parent="1">
          <mxGeometry x="-134.5" y="4791" width="60" height="40" as="geometry" />
        </mxCell>
        <mxCell id="k_sBdBxjnJnmiXeVj0B4-488" value="所属" style="ellipse;whiteSpace=wrap;html=1;" vertex="1" parent="1">
          <mxGeometry x="-164.5" y="4851" width="60" height="40" as="geometry" />
        </mxCell>
        <mxCell id="k_sBdBxjnJnmiXeVj0B4-489" value="范围" style="ellipse;whiteSpace=wrap;html=1;" vertex="1" parent="1">
          <mxGeometry x="-74.5" y="4761" width="60" height="40" as="geometry" />
        </mxCell>
        <mxCell id="k_sBdBxjnJnmiXeVj0B4-490" value="当前辐射程度" style="ellipse;whiteSpace=wrap;html=1;" vertex="1" parent="1">
          <mxGeometry x="-77" y="4941" width="59" height="40" as="geometry" />
        </mxCell>
        <mxCell id="k_sBdBxjnJnmiXeVj0B4-491" value="" style="endArrow=none;html=1;rounded=0;" edge="1" parent="1" source="k_sBdBxjnJnmiXeVj0B4-493">
          <mxGeometry width="50" height="50" relative="1" as="geometry">
            <mxPoint x="-108" y="4931" as="sourcePoint" />
            <mxPoint x="-88" y="4931" as="targetPoint" />
          </mxGeometry>
        </mxCell>
        <mxCell id="k_sBdBxjnJnmiXeVj0B4-492" value="" style="endArrow=none;html=1;rounded=0;" edge="1" parent="1" target="k_sBdBxjnJnmiXeVj0B4-493">
          <mxGeometry width="50" height="50" relative="1" as="geometry">
            <mxPoint x="-108" y="4931" as="sourcePoint" />
            <mxPoint x="-88" y="4931" as="targetPoint" />
          </mxGeometry>
        </mxCell>
        <mxCell id="k_sBdBxjnJnmiXeVj0B4-493" value="ID" style="ellipse;whiteSpace=wrap;html=1;" vertex="1" parent="1">
          <mxGeometry x="-143.5" y="4911" width="60" height="40" as="geometry" />
        </mxCell>
        <mxCell id="k_sBdBxjnJnmiXeVj0B4-494" value="" style="endArrow=none;html=1;rounded=0;exitX=1;exitY=1;exitDx=0;exitDy=0;entryX=0.25;entryY=0;entryDx=0;entryDy=0;" edge="1" parent="1" source="k_sBdBxjnJnmiXeVj0B4-489" target="k_sBdBxjnJnmiXeVj0B4-486">
          <mxGeometry width="50" height="50" relative="1" as="geometry">
            <mxPoint x="-28" y="4791" as="sourcePoint" />
            <mxPoint x="22" y="4741" as="targetPoint" />
          </mxGeometry>
        </mxCell>
        <mxCell id="k_sBdBxjnJnmiXeVj0B4-495" value="" style="endArrow=none;html=1;rounded=0;exitX=1;exitY=0;exitDx=0;exitDy=0;" edge="1" parent="1" source="k_sBdBxjnJnmiXeVj0B4-490">
          <mxGeometry width="50" height="50" relative="1" as="geometry">
            <mxPoint x="-18" y="4961" as="sourcePoint" />
            <mxPoint x="2" y="4891" as="targetPoint" />
          </mxGeometry>
        </mxCell>
        <mxCell id="k_sBdBxjnJnmiXeVj0B4-496" value="" style="endArrow=none;html=1;rounded=0;exitX=0.953;exitY=0.751;exitDx=0;exitDy=0;exitPerimeter=0;entryX=0;entryY=0.25;entryDx=0;entryDy=0;" edge="1" parent="1" source="k_sBdBxjnJnmiXeVj0B4-487" target="k_sBdBxjnJnmiXeVj0B4-486">
          <mxGeometry width="50" height="50" relative="1" as="geometry">
            <mxPoint x="-74.5" y="4821" as="sourcePoint" />
            <mxPoint x="-3.789321881345245" y="4821" as="targetPoint" />
          </mxGeometry>
        </mxCell>
        <mxCell id="k_sBdBxjnJnmiXeVj0B4-497" value="" style="endArrow=none;html=1;rounded=0;exitX=1;exitY=0.5;exitDx=0;exitDy=0;entryX=0;entryY=0.75;entryDx=0;entryDy=0;" edge="1" parent="1" source="k_sBdBxjnJnmiXeVj0B4-493" target="k_sBdBxjnJnmiXeVj0B4-486">
          <mxGeometry width="50" height="50" relative="1" as="geometry">
            <mxPoint x="-78" y="4931" as="sourcePoint" />
            <mxPoint x="-28" y="4881" as="targetPoint" />
          </mxGeometry>
        </mxCell>
        <mxCell id="k_sBdBxjnJnmiXeVj0B4-498" value="" style="endArrow=none;html=1;rounded=0;exitX=1;exitY=0.5;exitDx=0;exitDy=0;entryX=0;entryY=0.5;entryDx=0;entryDy=0;" edge="1" parent="1" source="k_sBdBxjnJnmiXeVj0B4-488" target="k_sBdBxjnJnmiXeVj0B4-486">
          <mxGeometry width="50" height="50" relative="1" as="geometry">
            <mxPoint x="-78" y="4901" as="sourcePoint" />
            <mxPoint x="-28" y="4851" as="targetPoint" />
          </mxGeometry>
        </mxCell>
        <mxCell id="k_sBdBxjnJnmiXeVj0B4-499" value="可进行" style="rhombus;whiteSpace=wrap;html=1;" vertex="1" parent="1">
          <mxGeometry x="100" y="4845.5" width="80" height="51" as="geometry" />
        </mxCell>
        <mxCell id="k_sBdBxjnJnmiXeVj0B4-500" value="" style="endArrow=none;html=1;rounded=0;exitX=1;exitY=0.5;exitDx=0;exitDy=0;entryX=0;entryY=0.5;entryDx=0;entryDy=0;" edge="1" parent="1" source="k_sBdBxjnJnmiXeVj0B4-486" target="k_sBdBxjnJnmiXeVj0B4-499">
          <mxGeometry width="50" height="50" relative="1" as="geometry">
            <mxPoint x="60" y="4880" as="sourcePoint" />
            <mxPoint x="110" y="4830" as="targetPoint" />
          </mxGeometry>
        </mxCell>
        <mxCell id="k_sBdBxjnJnmiXeVj0B4-502" value="1" style="edgeLabel;html=1;align=center;verticalAlign=middle;resizable=0;points=[];" vertex="1" connectable="0" parent="k_sBdBxjnJnmiXeVj0B4-500">
          <mxGeometry x="0.0019" y="-3" relative="1" as="geometry">
            <mxPoint as="offset" />
          </mxGeometry>
        </mxCell>
        <mxCell id="k_sBdBxjnJnmiXeVj0B4-501" value="" style="endArrow=classic;html=1;rounded=0;exitX=1;exitY=0.5;exitDx=0;exitDy=0;" edge="1" parent="1" source="k_sBdBxjnJnmiXeVj0B4-499">
          <mxGeometry width="50" height="50" relative="1" as="geometry">
            <mxPoint x="190" y="4840" as="sourcePoint" />
            <mxPoint x="240" y="4870" as="targetPoint" />
          </mxGeometry>
        </mxCell>
        <mxCell id="k_sBdBxjnJnmiXeVj0B4-503" value="n" style="edgeLabel;html=1;align=center;verticalAlign=middle;resizable=0;points=[];" vertex="1" connectable="0" parent="k_sBdBxjnJnmiXeVj0B4-501">
          <mxGeometry x="-0.02" y="-2" relative="1" as="geometry">
            <mxPoint as="offset" />
          </mxGeometry>
        </mxCell>
        <mxCell id="k_sBdBxjnJnmiXeVj0B4-504" value="申请" style="rounded=0;whiteSpace=wrap;html=1;" vertex="1" parent="1">
          <mxGeometry x="268.75" y="5264" width="73" height="40" as="geometry" />
        </mxCell>
        <mxCell id="k_sBdBxjnJnmiXeVj0B4-505" value="申请人" style="ellipse;whiteSpace=wrap;html=1;" vertex="1" parent="1">
          <mxGeometry x="437.75" y="5274" width="63" height="40" as="geometry" />
        </mxCell>
        <mxCell id="k_sBdBxjnJnmiXeVj0B4-506" value="申请时间" style="ellipse;whiteSpace=wrap;html=1;" vertex="1" parent="1">
          <mxGeometry x="409.5" y="5374" width="63" height="40" as="geometry" />
        </mxCell>
        <mxCell id="k_sBdBxjnJnmiXeVj0B4-507" value="申请活动" style="ellipse;whiteSpace=wrap;html=1;" vertex="1" parent="1">
          <mxGeometry x="437.75" y="5324" width="63" height="40" as="geometry" />
        </mxCell>
        <mxCell id="k_sBdBxjnJnmiXeVj0B4-508" value="审批时间" style="ellipse;whiteSpace=wrap;html=1;" vertex="1" parent="1">
          <mxGeometry x="391.75" y="5134" width="60" height="40" as="geometry" />
        </mxCell>
        <mxCell id="k_sBdBxjnJnmiXeVj0B4-509" value="申请海域" style="ellipse;whiteSpace=wrap;html=1;" vertex="1" parent="1">
          <mxGeometry x="422.75" y="5174" width="63" height="40" as="geometry" />
        </mxCell>
        <mxCell id="k_sBdBxjnJnmiXeVj0B4-510" value="审批状态" style="ellipse;whiteSpace=wrap;html=1;" vertex="1" parent="1">
          <mxGeometry x="345.75" y="5094" width="60" height="40" as="geometry" />
        </mxCell>
        <mxCell id="k_sBdBxjnJnmiXeVj0B4-511" value="申请时间" style="ellipse;whiteSpace=wrap;html=1;" vertex="1" parent="1">
          <mxGeometry x="437.75" y="5224" width="64.5" height="40" as="geometry" />
        </mxCell>
        <mxCell id="k_sBdBxjnJnmiXeVj0B4-512" value="审批人" style="ellipse;whiteSpace=wrap;html=1;" vertex="1" parent="1">
          <mxGeometry x="331.75" y="5464" width="60" height="40" as="geometry" />
        </mxCell>
        <mxCell id="k_sBdBxjnJnmiXeVj0B4-513" value="ID" style="ellipse;whiteSpace=wrap;html=1;" vertex="1" parent="1">
          <mxGeometry x="383.75" y="5424" width="63" height="40" as="geometry" />
        </mxCell>
        <mxCell id="k_sBdBxjnJnmiXeVj0B4-514" value="" style="endArrow=none;html=1;rounded=0;" edge="1" parent="1">
          <mxGeometry width="50" height="50" relative="1" as="geometry">
            <mxPoint x="407.25" y="5454" as="sourcePoint" />
            <mxPoint x="424.25" y="5454" as="targetPoint" />
          </mxGeometry>
        </mxCell>
        <mxCell id="k_sBdBxjnJnmiXeVj0B4-515" value="" style="endArrow=none;html=1;rounded=0;exitX=0.5;exitY=0;exitDx=0;exitDy=0;entryX=0;entryY=1;entryDx=0;entryDy=0;" edge="1" parent="1" source="k_sBdBxjnJnmiXeVj0B4-504" target="k_sBdBxjnJnmiXeVj0B4-510">
          <mxGeometry width="50" height="50" relative="1" as="geometry">
            <mxPoint x="308.75" y="5184" as="sourcePoint" />
            <mxPoint x="358.75" y="5134" as="targetPoint" />
          </mxGeometry>
        </mxCell>
        <mxCell id="k_sBdBxjnJnmiXeVj0B4-516" value="" style="endArrow=none;html=1;rounded=0;entryX=0.06;entryY=0.717;entryDx=0;entryDy=0;entryPerimeter=0;" edge="1" parent="1" target="k_sBdBxjnJnmiXeVj0B4-508">
          <mxGeometry width="50" height="50" relative="1" as="geometry">
            <mxPoint x="318.75" y="5264" as="sourcePoint" />
            <mxPoint x="368.75" y="5214" as="targetPoint" />
          </mxGeometry>
        </mxCell>
        <mxCell id="k_sBdBxjnJnmiXeVj0B4-517" value="" style="endArrow=none;html=1;rounded=0;entryX=0;entryY=0.5;entryDx=0;entryDy=0;exitX=0.859;exitY=-0.005;exitDx=0;exitDy=0;exitPerimeter=0;" edge="1" parent="1" source="k_sBdBxjnJnmiXeVj0B4-504" target="k_sBdBxjnJnmiXeVj0B4-509">
          <mxGeometry width="50" height="50" relative="1" as="geometry">
            <mxPoint x="330.25" y="5264" as="sourcePoint" />
            <mxPoint x="380.25" y="5214" as="targetPoint" />
          </mxGeometry>
        </mxCell>
        <mxCell id="k_sBdBxjnJnmiXeVj0B4-518" value="" style="endArrow=none;html=1;rounded=0;exitX=1;exitY=0.25;exitDx=0;exitDy=0;entryX=0;entryY=0.5;entryDx=0;entryDy=0;" edge="1" parent="1" source="k_sBdBxjnJnmiXeVj0B4-504" target="k_sBdBxjnJnmiXeVj0B4-511">
          <mxGeometry width="50" height="50" relative="1" as="geometry">
            <mxPoint x="358.75" y="5274" as="sourcePoint" />
            <mxPoint x="408.75" y="5224" as="targetPoint" />
          </mxGeometry>
        </mxCell>
        <mxCell id="k_sBdBxjnJnmiXeVj0B4-519" value="" style="endArrow=none;html=1;rounded=0;entryX=0;entryY=0.5;entryDx=0;entryDy=0;exitX=1;exitY=0.5;exitDx=0;exitDy=0;" edge="1" parent="1" source="k_sBdBxjnJnmiXeVj0B4-504" target="k_sBdBxjnJnmiXeVj0B4-505">
          <mxGeometry width="50" height="50" relative="1" as="geometry">
            <mxPoint x="368.75" y="5344" as="sourcePoint" />
            <mxPoint x="418.75" y="5294" as="targetPoint" />
          </mxGeometry>
        </mxCell>
        <mxCell id="k_sBdBxjnJnmiXeVj0B4-520" value="" style="endArrow=none;html=1;rounded=0;entryX=0;entryY=0.5;entryDx=0;entryDy=0;exitX=1;exitY=0.75;exitDx=0;exitDy=0;" edge="1" parent="1" source="k_sBdBxjnJnmiXeVj0B4-504" target="k_sBdBxjnJnmiXeVj0B4-507">
          <mxGeometry width="50" height="50" relative="1" as="geometry">
            <mxPoint x="338.75" y="5374" as="sourcePoint" />
            <mxPoint x="388.75" y="5324" as="targetPoint" />
          </mxGeometry>
        </mxCell>
        <mxCell id="k_sBdBxjnJnmiXeVj0B4-521" value="" style="endArrow=none;html=1;rounded=0;entryX=0;entryY=0.5;entryDx=0;entryDy=0;" edge="1" parent="1" target="k_sBdBxjnJnmiXeVj0B4-506">
          <mxGeometry width="50" height="50" relative="1" as="geometry">
            <mxPoint x="328.75" y="5304" as="sourcePoint" />
            <mxPoint x="268.75" y="5344" as="targetPoint" />
          </mxGeometry>
        </mxCell>
        <mxCell id="k_sBdBxjnJnmiXeVj0B4-522" value="" style="endArrow=none;html=1;rounded=0;entryX=0;entryY=0.5;entryDx=0;entryDy=0;exitX=0.75;exitY=1;exitDx=0;exitDy=0;" edge="1" parent="1" source="k_sBdBxjnJnmiXeVj0B4-504" target="k_sBdBxjnJnmiXeVj0B4-513">
          <mxGeometry width="50" height="50" relative="1" as="geometry">
            <mxPoint x="278.75" y="5434" as="sourcePoint" />
            <mxPoint x="328.75" y="5384" as="targetPoint" />
          </mxGeometry>
        </mxCell>
        <mxCell id="k_sBdBxjnJnmiXeVj0B4-523" value="" style="endArrow=none;html=1;rounded=0;entryX=0.5;entryY=0;entryDx=0;entryDy=0;" edge="1" parent="1" target="k_sBdBxjnJnmiXeVj0B4-512">
          <mxGeometry width="50" height="50" relative="1" as="geometry">
            <mxPoint x="308.75" y="5304" as="sourcePoint" />
            <mxPoint x="188.75" y="5384" as="targetPoint" />
          </mxGeometry>
        </mxCell>
        <mxCell id="k_sBdBxjnJnmiXeVj0B4-524" value="渔业管理人员" style="rounded=0;whiteSpace=wrap;html=1;" vertex="1" parent="1">
          <mxGeometry x="-25" y="5262" width="70" height="40" as="geometry" />
        </mxCell>
        <mxCell id="k_sBdBxjnJnmiXeVj0B4-525" value="工号" style="ellipse;whiteSpace=wrap;html=1;" vertex="1" parent="1">
          <mxGeometry x="-122.5" y="5244" width="61" height="40" as="geometry" />
        </mxCell>
        <mxCell id="k_sBdBxjnJnmiXeVj0B4-526" value="管理区域" style="ellipse;whiteSpace=wrap;html=1;" vertex="1" parent="1">
          <mxGeometry x="-68" y="5194" width="60" height="40" as="geometry" />
        </mxCell>
        <mxCell id="k_sBdBxjnJnmiXeVj0B4-527" value="负责内容" style="ellipse;whiteSpace=wrap;html=1;" vertex="1" parent="1">
          <mxGeometry x="-68" y="5334" width="60" height="40" as="geometry" />
        </mxCell>
        <mxCell id="k_sBdBxjnJnmiXeVj0B4-528" value="管理人员" style="ellipse;whiteSpace=wrap;html=1;" vertex="1" parent="1">
          <mxGeometry x="-121.5" y="5294" width="61" height="40" as="geometry" />
        </mxCell>
        <mxCell id="k_sBdBxjnJnmiXeVj0B4-529" value="" style="endArrow=none;html=1;rounded=0;entryX=0.5;entryY=0;entryDx=0;entryDy=0;" edge="1" parent="1" target="k_sBdBxjnJnmiXeVj0B4-524">
          <mxGeometry width="50" height="50" relative="1" as="geometry">
            <mxPoint x="-31.5" y="5234" as="sourcePoint" />
            <mxPoint x="38.5" y="5174" as="targetPoint" />
          </mxGeometry>
        </mxCell>
        <mxCell id="k_sBdBxjnJnmiXeVj0B4-530" value="" style="endArrow=none;html=1;rounded=0;exitX=1;exitY=0.5;exitDx=0;exitDy=0;entryX=0;entryY=0.25;entryDx=0;entryDy=0;" edge="1" parent="1" source="k_sBdBxjnJnmiXeVj0B4-525" target="k_sBdBxjnJnmiXeVj0B4-524">
          <mxGeometry width="50" height="50" relative="1" as="geometry">
            <mxPoint x="-61.5" y="5274" as="sourcePoint" />
            <mxPoint x="-11.5" y="5224" as="targetPoint" />
          </mxGeometry>
        </mxCell>
        <mxCell id="k_sBdBxjnJnmiXeVj0B4-531" value="" style="endArrow=none;html=1;rounded=0;exitX=1;exitY=0.5;exitDx=0;exitDy=0;entryX=0;entryY=0.75;entryDx=0;entryDy=0;" edge="1" parent="1" source="k_sBdBxjnJnmiXeVj0B4-528" target="k_sBdBxjnJnmiXeVj0B4-524">
          <mxGeometry width="50" height="50" relative="1" as="geometry">
            <mxPoint x="8.5" y="5334" as="sourcePoint" />
            <mxPoint x="58.5" y="5284" as="targetPoint" />
          </mxGeometry>
        </mxCell>
        <mxCell id="k_sBdBxjnJnmiXeVj0B4-532" value="" style="endArrow=none;html=1;rounded=0;exitX=0.769;exitY=0.123;exitDx=0;exitDy=0;entryX=0.5;entryY=1;entryDx=0;entryDy=0;exitPerimeter=0;" edge="1" parent="1" source="k_sBdBxjnJnmiXeVj0B4-527" target="k_sBdBxjnJnmiXeVj0B4-524">
          <mxGeometry width="50" height="50" relative="1" as="geometry">
            <mxPoint x="-1.5" y="5364" as="sourcePoint" />
            <mxPoint x="48.5" y="5314" as="targetPoint" />
          </mxGeometry>
        </mxCell>
        <mxCell id="k_sBdBxjnJnmiXeVj0B4-533" value="审批" style="rhombus;whiteSpace=wrap;html=1;" vertex="1" parent="1">
          <mxGeometry x="122" y="5258.5" width="80" height="51" as="geometry" />
        </mxCell>
        <mxCell id="k_sBdBxjnJnmiXeVj0B4-534" value="" style="endArrow=none;html=1;rounded=0;entryX=0;entryY=0.5;entryDx=0;entryDy=0;" edge="1" parent="1" target="k_sBdBxjnJnmiXeVj0B4-533">
          <mxGeometry width="50" height="50" relative="1" as="geometry">
            <mxPoint x="45" y="5284" as="sourcePoint" />
            <mxPoint x="95" y="5234" as="targetPoint" />
          </mxGeometry>
        </mxCell>
        <mxCell id="k_sBdBxjnJnmiXeVj0B4-536" value="1" style="edgeLabel;html=1;align=center;verticalAlign=middle;resizable=0;points=[];" vertex="1" connectable="0" parent="k_sBdBxjnJnmiXeVj0B4-534">
          <mxGeometry x="0.0602" y="2" relative="1" as="geometry">
            <mxPoint as="offset" />
          </mxGeometry>
        </mxCell>
        <mxCell id="k_sBdBxjnJnmiXeVj0B4-535" value="" style="endArrow=classic;html=1;rounded=0;exitX=1;exitY=0.5;exitDx=0;exitDy=0;entryX=0;entryY=0.5;entryDx=0;entryDy=0;" edge="1" parent="1" source="k_sBdBxjnJnmiXeVj0B4-533" target="k_sBdBxjnJnmiXeVj0B4-504">
          <mxGeometry width="50" height="50" relative="1" as="geometry">
            <mxPoint x="210" y="5280" as="sourcePoint" />
            <mxPoint x="260" y="5230" as="targetPoint" />
          </mxGeometry>
        </mxCell>
        <mxCell id="k_sBdBxjnJnmiXeVj0B4-537" value="n" style="edgeLabel;html=1;align=center;verticalAlign=middle;resizable=0;points=[];" vertex="1" connectable="0" parent="k_sBdBxjnJnmiXeVj0B4-535">
          <mxGeometry x="-0.0591" relative="1" as="geometry">
            <mxPoint as="offset" />
          </mxGeometry>
        </mxCell>
      </root>
    </mxGraphModel>
  </diagram>
</mxfile>
